<mxfile host="65bd71144e">
    <diagram id="Yzj_7P4xCbGdsviZ6JX_" name="ページ1">
        <mxGraphModel dx="897" dy="592" grid="1" gridSize="10" guides="1" tooltips="1" connect="1" arrows="1" fold="1" page="1" pageScale="1" pageWidth="827" pageHeight="1169" math="0" shadow="0">
            <root>
                <mxCell id="0"/>
                <mxCell id="1" parent="0"/>
                <mxCell id="27" value="" style="rounded=0;whiteSpace=wrap;html=1;" vertex="1" parent="1">
                    <mxGeometry x="100" y="410" width="580" height="240" as="geometry"/>
                </mxCell>
                <mxCell id="28" value="" style="shape=image;verticalLabelPosition=bottom;labelBackgroundColor=default;verticalAlign=top;aspect=fixed;imageAspect=0;image=data:image/png,iVBORw0KGgoAAAANSUhEUgAAAggAAAElCAYAAACBJhoWAAAAAXNSR0IArs4c6QAAIABJREFUeF7sXQeYVNXZfqf3me0sRaoUAaWDimBXVBSNvWtiNLH+GksSjV1jN9ZYE3vsFTuKAoqIggWkS2cXtk/v93++s2yyzNzZudNndr/viU9M9pZz3nPm3vd+5f1UkiRJYGMEGAFGgBFgBBgBRqATAiomCLwfGAFGgBFgBBgBRiAWASYIvCcYAUaAEWAEGAFGIA4BJgi8KRgBRoARYAQYAUaACQLvAUaAEWAEGAFGgBFIjgB7EJJjxEcwAowAI8AIMAI9DgEmCD1uyXnCjAAjwAgwAoxAcgSYICTHiI9gBBgBRoARYAR6HAJMEHrckvOEGQFGgBFgBBiB5AgwQUiOER/BCDACjAAjwAj0OASYIPS4JecJMwKMACPACDACyRFggpAcIz6CEWAEGAFGgBHocQgwQehxS84TZgQYAUaAEWAEkiPABCE5RnwEI8AIMAKMACPQ4xBggtDjlpwnzAgwAowAI8AIJEeACUJyjPgIRoARYAQYAUagxyHABKHHLTlPmBFgBBgBRoARSI4AE4TkGPERjAAjwAgwAoxAj0OACUKPW3KeMCPACDACjAAjkBwBJgjJMeIjGAFGgBFgBBiBHocAE4Qet+Q8YUaAEWAEGAFGIDkCTBCSY8RHMAKMACPACDACPQ4BJgg9bsl5wowAI8AIMAKMQHIEmCAkx4iPYAQYAUaAEWAEehwCTBB63JLzhBkBRoARYAQYgeQIMEFIjhEfwQgwAowAI8AI9DgEmCD0uCXnCTMCjAAjwAgwAskRYIKQHCM+ghFgBBgBRoAR6HEIMEHocUvOE2YEGAFGgBFgBJIjwAQhOUZ8BCPACDACjAAj0OMQYILQ45acJ8wIMAKMACPACCRHgAlCcoz4CEaAEWAEGAFGoMchwAShxy05T5gRYAQYAUaAEUiOABOE5BjxEYwAI8AIMAKMQI9DgAlCj1tynjAjwAgwAowAI5AcASYIyTHiIxgBRoARYAQYgR6HABOEHrfkmU04EJLg9EYRjgAmgwoOswoqlQqSBKhUmV2bz2YEGAFGgBEoHgSYIBTPWhTdSLwBCQtX+PHeIh+2t0YAqBCNSghHIQiBRt3+DxEEnQYY2V+H4/Y1Y3g/XdHNhQfECDACjAAjkBoCTBBSw6tHHL2+PoSH3nVhxeYQfEEJRBQi0a6nTt4DnUYFi1EFm0mFk/e34JgpZpgN7FboEZuGJ8kIMALdDgEmCN1uSdOf0NbGCC75ZxPqWiiEICEqpX8trQbQqoFLZ9lw9BQLE4X0oeQzGQFGgBEoCAJMEAoCe3HclMIEwbCEJmcEZ9zdiDZvBoygyylJ+OvJDsyYYIZRrxJhCTZGgBFgBBiB4kaACUJxr09ORkfhglZPFNuawrjq6RY0tLXnF+TaVJBwzUkOTB9lhMOiFmSBjRFgBBgBRqA4EWCCUJzrkpNRhcISdrRG8ev2EB6Z7cKaraG8EIPYyVCewm8PtWLaaCNqHGrYzOxSyMmC80UZAUaAEcgAASYIGYBXKqdSaeK2pghWbAnhjQVe/Lg+AElS/vWu1wK9yjWosmtEImK7s4HCEVTeKMHllbClMQy3P7UQRZVdjWP3MWPqSAN2q9ai3MpEoVT2FI+TEWAEuj8CTBC68RoHQxLW1oWxbEMQn/3ox/drg6I8UYlRVULvCg2G9dWi2q7BPnsYMG6IHlaTepdgRCQqYcP2MD5e4sOG7RFs3BHGr/VhxfehsZAX4fAJJkweZsCI3XSosDFRULJGfAwjwAgwArlEgAlCLtEt0LWjUWDJuiCWbQxi/rIAfvg1qHgkRAx6lbUTgvFD9DhgL6PiCgTyVCxeHcS8ZX5xz/X14ZQqIcijcOg4E0YP0GHfkQbYOfSgeN34QEaAEWAEso0AE4RsI1rg6335s1/oFyxYHhD/nYrRC/roKWYMqtXikLFGGHTKwxCd70OVEd+sDGDZhhA+/8mPjdtTIwoUajhsvBEDe2lFCEKvTW8cqcydj2UEGAFGgBHYFQEmCN1kR8xZ6sOyjSEs+CUgvtxTMSIGZxxkFa7+g8Ya2/MMsmCkpfDNyiA2NYTx5ldebNiRWujBZlbhsPEm1JapcdbBNpC2AhsjwAgwAoxAfhBggpAfnHN2l89+8GPhygCWrA1gS2MkqeJh54H0r9bi1P3NItdg35HGnOkTkODS92sCopzy+c89WL01NQJDVQ/TRhkxqFaD0w+wih4QbIwAI8AIMAK5RYAJQm7xzcnV6YU772c/PvzOh1VbQqhrjoj+CEpt995anDjNguF9dRixmxa6PLnwKUFy5eYQtjRF8Mo8D5auSyE3AgB5FEb214tkyZOmmTlHQemC83GMACPACKSBABOENEAr1CnUQZFi+8995sbWpoj4Ik/WI6HzWIf20YoeCeMG64XXIN0cg0znT2Pe1hzB2q0hvDzPg+/WKCcKdG/STehbocaBY4z4zVQLKrg8MtMl4fMZAUaAEYhDgAlCCWwKeqF+tyaAu15vQ5tHEiqISssVaXqDemlx9iFWTBmhR5lZDX2ayYfZhooIT5snKpIpifRQGWYqRo2g7GYVfrOvBcdPNaOMiUIq8PGxjAAjwAh0iQAThCLeIEQCqFzwiiebEQwD/qBCEYOdc6opU+PyY+3Yb6QRhiLugUBlmVQiuXwTdZF0imTLVIxCJCTmdO6hVpw8nRtDpYIdH8sIMAKMQCIEmCAU2d4gUtDhMbj8iRbRTCkVU6shQgd3/7Yce48wgHQNSslo/mu2hXDts61CdCmVEEr7PCVcfLQdZx5kFUmXpTb/UlorHisjwAh0bwSYIBTJ+oYiEjw+SbjZ732rDdtblGcd0kvQZlLDpAfuOLcCew7UdYsXY31Le/vpFncUrR4ppbAKlUT+7jArTtiv3aPAjaGKZKPzMBgBRqBkEGCCUOClorBBkyuKJWuDeO4zF36tp86KykytAqocGlRYVbjyeAf2GqTPWamishHl5qhmVxRXPtWCJlcERBood0Gp2U0qkch4zBQTym1qrnxQChwfxwgwAj0eASYIBdoCvqCEzQ1h/PhrCG985RVudaVGrvPacg1Ix+D0gyyihwH9f/kwCgEUwm1PgRbC68F3Xdi0I4zNDZGUwi9lFjVmTjYJhci+1VqufMjHZuF7MAKMQEkjwAQhz8tHyXgkQbxqa0ioC67frlw0iEhA30qN0AI4dLxRiAflixgQTJ5wGL5wBNSuyahVw6zV5hk9iDADaSkQqVq5JSRUI/0h5XkaVPUwc7IZU4YbMGqATlQ+lFiaRt4x5xsyAoxAz0SACUKe1p3Ejb74yY+tTWG8Os8rdACUGpEA8hZMHKbHpKF6HLiXCZSMmC8LRKJwh0LY7vPDEwqDsiMceh2qDHqUGfTQ5nMwOydNROHnDUHM/cmPnzYEsXJzOKUqD6tJhWP3NmN4Px2mjTaIHA42RoARYAQYgf8hwAQhx7uBsvA//t4nYuekHtjoVJ58SEOjdsvTRhsxcjcdpu9pBOUd5MsikgRXMISmQBBtgSDCMeILNJQakxEWnRaVRkNBvsTJd/DLxiAWrQ5i6dqgEF1KpfLDpKccBTN6l2tw7L5m0P9mYwQYAUaAEQCYIORoF4TCEj5e4he5BZ8s8WFHa2rEYOxgPaaNMmDEbjpMoXLFHI0z0WW94TAafAE4gyH4Il17O/RqtSAIdr1OeBYKZWu2hkQVCHkUiJQhBdQMOuCYvc0it+M3+7KMc6HWkO/LCDACxYMAE4QsrwUlH1JnRXpR0dcseQ5SUT2cNEyP/UcbMXqgDqMG6PPqMSAoQtEotnv9cIVCcIfCUBrdJwJj0mpRbtCjwqCHqYCtF7c0hvEdeRR+DWL2t96UiAI1htp3DwOG9tVh1t5mUKdLNkaAEWAEeiICTBCytOpun4S5P/lA3RXX1oVTJgYTh+oxY4JJEIOBNflroNQxfSICDT4/mv1BkYxI4YV0TKNSCXJQbTSgwmgA/e9CGA2fyBnlKVC3y3e/IY+CcrOb1RjeT4vxQ/Q4ekp7x0s2RoARYAR6EgJMEDJcbY9fwidLfXj7a68II1ADpVRerXsN0uGU6RbssZsOtRUa6PPUWbHztKkyYb3TjUA0KjwI2TCdWg2jRoPdrGZYdfmvduiYA02H9BOItH3yvQ+zF/uQyhRtJhX6VGowfbQRx+1jRq9yJgrZ2B98DUaAESh+BJggpLlGFJZ/d5EXz3/uEQ2HqIFSKkbJh5ceY8fgWi0q7GroNPn/0pYkCWva3PBFwqBKhVwY5ScQQRhgs0KXzwzLmMlQFYnTE0V9awQvzXXjkyV+hJQXkoBCD+UWNQ6bYMRpB1hRzo2hcrFd+JqMACNQRAgwQUhxMch1/doCDx7/0I1AUALlHCg3SegY3HNehXBZWwzqvJYrdoyTRlzn8aHB70cwEk3J46F8rv87kqgPhRr6WEyoNZvSuUTWzqH1ozXz+KO47y2nKD2lRlhKjTphmvUqzNrbhD8eZUcBnSNKh8zHMQKMACOQFgJMEBTCRi+WV7704PGPXHD5UusLQA2EKm0avPbXaiH1W6CwvJgplS1ucntFnkEhjMjCqMoymDWFd9W3N8aS8OdnWvDlT35EJeVeHFpDcoicMNWMq05wFHRNC7GOfE9GgBHo/ggwQehijalUMRAC3v7Gi+c/c6ekYUAvD5NBJTwGD15Qgeqywr0QyWNAnoJtHi8a/IGi2NUWrRbDymzCs6AuJGPaiQaRhT//uwWLVgXhC0ZT6vdA3TOp18OFM22ikyb9w8YIMAKMQKkjwARBZgV9AWqgFMGcpX7858vUxI2ouo/kewf30uLy4+wY1rdwugBEDEKRKJoDAWxxe4UCYjEZ5WNWm4zoZTZBp1JBVQREwemN4qF3XaLyodUdTSmERF0jj5hoxOkHtuco2MhbVEyA81gYAUaAEUgBASYIncDyBiSh7b94TQDPfdaefKjUqPqgpkyN4X21OGV/C8YNMRTU7UzVCK5QWHgNvJSNV8RvKvIm9DIbYdfpoNMUx0uVSiRfnufBNysCqG+JwuVTvhfIc0QeBSpb3a1aC2oUVQTcR+lW5uMYAUaAERAIMEEAhIb/knVBrKsL4cmP3KDSRaVGxKB/jQYjd9NjxkQjJg/Pv+ph57FGJUmoH7YGg9jh9Rem9aJS8GKOqzAYUGnUw6bTFqS/g9yw65ojeO9bLxavpv0RTok0GnUqHL+fGSR+NXqAnolCmvuCT2MEGIHCINCjCQJ5DL76JYDtLWH88wN3Ss1+qD/RngP0Qgr54LFGTNhdX5gV7HTXtmAQ/nAUm9yenFcm5GqypFtIIQeSbSaiUAz5CTTX7a0RfPCtD8s2kpxzQCSqKjW9FsKrNLSPDvuNMohEVTZGgBFgBIodgR5JECjOPG9ZAJt2hPHSFx6RlJaKD37qSAOG9NbikLEm0TK40EYdFkkWud7nQ0D0TSjieIJCsEhkibwJJN1ciLbSiYbZ7IoKj8LGHRF8uNibUokk5aeQKBYJLx06zoQKGxMFhduBD2MEGIECINCjCEJDWxQLlvuxYnMIn//oR4tbeVyZXrn772kU8rsHjzUJglBoozyDlkAQzYGgIAgUXuhuRs2fSGiJ9BMKJdsshynlJLzzjReNbVHRpTMVLQWdBjhykgmDa3U4aIxREAY2RoARYASKDYEeQRDcfglf/uwX//z4azClckVaMCIG1Cth7xEGDKjRQlPgDz+iAdR+uckfgDMUzpo8crFtzo7xEDmjbpEdyYzFNE4SXKJql00NYbz+lRfUk0OpkToj7atJQw2YMdHE6oxKgePjGAFGIC8IdHuC8MumEF743I2fN4awrUm5ti7pGFAo4eBxJoweoMNuVVoUsEHhfzeDNxzBDp9fJCL6k7RhzssOyuNNqL9DmUGHCr0eDkPhcz46T53CVj/8GsTPG0J4Z6EXTS7l3ikKNVB7b1Jn3G+UMY+I8q0YAUaAEUiMQLclCNRaYOm6AO5+w4kN28OKhW+IBEweZhBJZf2rNehTWXiPAS1fKCq1d1sMBOAjeeRuGE5Q8kMlb4JBoxG5CTUmg/j3YjIqjd24I4yFKwJCYIsaeCkx8kqRqNb5R9hwyFgjdAVo2qVknHwMI8AI9BwEuiVBIAVESkK87602UcOuxOgBPX53PS6bZRfJY9UOjZDSLQZrC5A8sgfBaDTtNszFMI9sjoHyEcij0NtsEsmMxVLt0DFHCjU0OiOY84MPr833Kg5rVdrV+O1hVhw92QSLscCxrGwuGF+LEWAESg6BbkcQqGsfJSJe/3yr4lK08UP0uOWsMiGNLHolFMkyRiQJy5tbRY5BRHlou0hGn59hEFEwaNQYaLMWtK10otmSxgblwMxe5MW/P3WLf09mFoMKl86y4ajJZpj0xbIbk42a/84IMALdDYFuRxA2N4Zxwm0NCkIKEvYebsAdv62AUY+CtFtOtJnoFbLB6UajPwipZBUN8vtT6UhkHGCzFFW1QwcKFPIKRyS8vdCLu99og5SkMRSFuh44vwKThhsKnhSb35XkuzECjECxINCtCAK18Z12ZR2kLnwAJFozboge151SVnTlZVSm2NopnFAsm6SkxiFJGOKwiRyFYgs7dOAYjkCURj4y24VgOHFnUCI9r19bjYG9Cl9SW1J7gAfLCDACWUGg2xAEyjuYdcsObE+Qc0Ba+BQ+uO4UBw7Yy1g0+QW0ihRK8Icj2Oz2whkKZWVhe/pFRFvpCgf0anXRyDbHrgklz171dAs2N4RB7TLkzGFW4Z0bamAzcT5CT9/TPH9GIN8IdBuC8OlSH/72XKvsg5ZeFrUVGlxxnF0I0xSLETEIRiLY7gugwe9HDy1MyNly0Lrb9Dr0t5qh12igLcKOSVTx8MDbTnyzKiBai8ebhL+eXIbjp5pzhhNfmBFgBBgBOQS6BUGgGvRT7mjA9gQlZb0rNLhopg1HTDQVxS6gHAOSRG4NBLHd50eAAtRsOUOAiEGNyYgKowFGjbroQg/UJOzh91yiL4jcVlBBwqe317KQUs52CF+YEWAEui1B+M8XHvzzA5dsF8YqUTZmw0nTzEXRcjcclYQ8MnVbpP9myx8CpMRYZTLAodPBWAyqV52m/t2aoPAk/LJZPsR03mEW/HGmPX9g8Z0YAUagxyNQ8h4EcsufcXcDVm4Jxy0meZQP3MuIv53qKIoOeo3+AEgJsd7r6/Ebr1AAUNiBEhjLDHpQnwfSUigW+2CxTyQu1rfEJySY9MD8u3sXBcktFrx4HIwAI5BbBEqeIKzaEsI1/6ZEr/iHKjXBuXimDYdPKGxogfomuMNh1Hv9LHSU2/2s+OoUduhMFIqh4oE6Rd77phMffR9PIPVaFf55cYWQZGZjBBgBRiAfCJQ8Qbj7dafoqkcljrE2aZgeD1xQAYOuMGIzlFvQ6PeLUAJ5DtiKDwGTRiMSGXubjUUh20zlj09/4kaTc9e8FFL1nDbagPt+X1F8IPKIGAFGoFsiUPIE4aJHm/HNykDc4lCnvFOmW3DhTFveF476JOzwBUSegaubtmHOO6g5viGFG6ivwwAr5aoUhlDSFOuaI7j15TbZPU3JtrNvrMkxEnx5RoARYATaEShpgkDaB5c81ozFq+OT/frXaHHveeUYXJtfkRkiBY2+gCAGJJHMVjoIEC0gouDQ69HLXJhyWJIKv+7ZFny8xB8HXK9yDd6+rhr6AnnESmcleaSMACOQDQRKmiAsXh3Ana87sb4+PkFxWF8tnr+yOm8tmn2kZ+D1g/INqKlScsX9bCwfXyMXCFB+glWnRa3ZBLtel4tbdHnNW15qxexvfQjH8EsS+vrbqaTlUdicmrwDwjdkBBiBgiBQ0gTh/redeGOBfP7BqAE6PPenqpyDSvLIVJ2wzeNDWJJA/5ut9BEgb4JGrUKlQY8+FnNeqx2omuHR910i3NDZqDJz2igD7jmP8xBKf4fxDBiB4kegZAkCvYeve65VNuObkhKP28eMq07Ibd24PxLBL81toA89JgbFv9nTGSERBa1ahX4WM6pMxrx0+iThrz892YIl6+JDZyP66fDCVVVc7pjOYvI5jAAjkBICJU0Q/vpsKz5ZEl8SRuJIT15Wif7Vuck/IEKwqsUJZygIVV5eGSmtKR+cAwTIL2TRajDIZoVZp83pqhP5vejRJixaFU8Qhu8kCFTVwMYIMAKMQC4RKFmC8NP6oKgZX7YxXnmutrw92zubyej0gohEo2jyB7DJ7eUcg1zuymK+tiSJ3ARKYqT+Drl6T1/xZDPmLw8gNs+V9va1pziw7x6GYkaJx8YIMALdAIGSJQjPfebGM5960OaNrxToX63BW3/LXjkYJR36wmFscHoQ4MqEbrDtszOF3e02mHUaGDWa7Fyw01VIPvypj91o9ey6v416FY6ZYsI1Jzqyfk++ICPACDACnREoWYJw5+tteHWeN241STmXmjLdfEZZxitNZYqUZ0AJiG1BbsOcMaDd8AJU8bC7wwaDRp1VoSUSSvrDw034VaZCZ+/hejxyUWU3RJOnxAgwAsWEQEkSBNI/uOt1J978Op4gkCTt45dUYK9B6UvSUsKhLxxBYyCAZn8AISpOZ2MEEiBAoawyvV50jKSGUJTUmA077a4GrJLpMTJxqB4P/qFwCqHZmBtfgxFgBIofgZIkCOvqwrj/LScWyigokgv2yzt7QatJ7yFNHoMWfxAtwSDcoXh9heJfUh5hoRDQqVWoMhpRZtDBqtVlnANzwUNNWLI2iFh+unsfLa492ZERCS4URnxfRoARKB0ESpIgvPW1V9SJU3ObWCuzqvDZ7bUpr0BEktDgCwhS0ByIl25O+YLd9gQJxJso075dQyg9ItZt4RHVDtqdjaB0MGvTr6R5+mM3npnjhjewqwerkDLi3XndeG6MACOwKwIlSRCe/MiFxz90i5dUrO2/Z+oNbUjoyB0Kockf5G6LCX4hwZCERT9F0dCykyAA0GkBgw6YNkEDh5WJQmfoCA1SYaTQQ7lRD30abaU3N4Rx3gNNaIxp3ETXnjHBhFvPzjzPhh+IjAAjwAgkQqDkCAKRgsc/dOHJj9yyc3rqskqMG6Is/8AbDgt5ZGcoBOq8yCaPwOqNUSz5JYofVkXRFgM7kYQ9h6owZrgak0dnP5u/1NeE8hGsWq3IT6AeD6mU3lJo4egbt6O+JX5vHj7eiNvOLk/peqWOJY+fEWAE8otAyRGEDdvDePg9J+b+JB8GWHR/bdL8AwonbHV74Q6HOc8gyX4jcvDhggjWbW73HMgZ5eT1qVHhyGkajBuhzu8OLpG7UVtp6hY5yG5JSbb55DsasG5bOE53Y8+BOlx1vAMkKc7GCDACjEAuECg5gjBnqR/3vNmGhrb4ryry4i7+R+8ucdrh9aM5EBTkgOWRu95S/oCEj76K4LNFUYR3bQsQd6JGDUwYqcJpR2ph0HO4IRGylJ9g1mow0G5VlL1xzxtteHW+F7EOLodFjXMOseKsgy25eC7wNRkBRoARKL12z6/N9+Ku19viMrtpLcfvrseTl8rXh7tCIdR7fXAFw6KpEltyBBb9HMGrn0TgjVezlj3ZZAAO21eNGVPTT8xLPqrSP4I8Lka1RqgxVpu6biu9ozWCY29pQCC0656lUMXJ0y246vjc9hspfbR5BowAI5AuAiXlQaD3+ivzPLj7DafsfB+5sAJ7j4iXoN3h82Oz2ys8BkwNlG+VL76L4JWPkrgOYi53wEQ1TjpcA1UqwXblQ+pWR5KfxWHQY6jDltCbQHt+2tX18MVUMhAQJ04z45oTHJyH0K12BU+GESgeBEqKINDXFCUnygkkEaQL7q6FybCre5sIwXNbGvDatkacVuPA7mbWsFey/ejFNHdxBK99khpBmD5BjZNnaKBmgtAlzK5wBI9sbYJFr8dzY4Z0GW6YfnU9PP54arvfSAMuP86Ogb3YY6NkT/MxjAAjkBoCJUUQvlkZwK0vt6GuOf6lpVFLmHdXb5BQUmfrIAg3rt0KSZJwbJUdh5RbUKnTQsMvsYS7hdQqP18UwdtzU6vu2HesGicdpuE8BBlkaS96whEsdPrwVF0z6NN/v3JbUoJw04tteHdRvGpohU2NC4+y4bh9zan96vloRoARYAQUIFBSBOHj733463OtkIsT7DVQh8cvrQRJLSciCB3/P+XZX9K3Arub9KjW6xQliynAslsdkglBOPlwDfQ6TlTsvCGaQmE0BCO4deMOdO7qoYQgUBXDSXc0yO6v84+w4YIjrN1q7/FkGAFGoDgQKBmCQDXhHyz24YYXWmWR++vJDhy7jxmUTZ+MIIi/SxJ6G3Q4v3c5+hh0KNNyDX9n3MKRdg/CW5+n5kHYb5waRBC0MUStOLZ7/kfRRj09QmH8q74Fv/pCiEVTCUGgcM/Ey+pkB/+7w6244Ahb3L7P/0z5jowAI9DdECgZgtDmieK5zz145lN5gaTZN9agd0X8S75ziEF28SQJB5dbsbfdhOFmAwxpKN51t02xkz/hi8XtVQypGCUpnnKEBpLUsz0I1BZ8cyCEea1efN3mhStBm3AlBIHw3/+aerh98XkIR04y4aKZNtSWM8FNZZ/ysYwAI5AcgZIhCL9sCuH651uxfnu8Wg99/L9zfY3sQzIpQdiJkUWtwnFVdgwy6THKbOAsfABffhfByylUMRDW+09Q45QZPbeKgSpltgbCWOr24as2LzYEum4TrpQg/PnfLfh0qT/uF927Qo0/HefAgWO6LpdM/ijgIxgBRoAR2BWBkiEI364K4OJ/NscJxtB0hvfT4uE/VoKStmJNKUGg8+ibt59Bh8PKLRhqMgiy0JNtwZJ2D4LSppYU3jlwshrHH9Izs+pbQmEsdvnwg9uPJW6/opJapQRh8eoA/vBwc9x2JMyvOsGOE/djwaSe/FvluTMCuUCgJAgCxWC/+iWAyx6Pf0ASKH/6jR3HTzXDIJMYlwpB6ADYoFJhuFmPqQ4zxlhMKNf1TPe8zdWoAAAgAElEQVQtySy/OSeCjXXK1COqylU4ev+e15OBwgnfufz4we3Dty4f/LH9mbv45SolCKSDsN9V9bJX+tNxdpyyvwUcHcvFI5KvyQj0XARKgiC4/RJe+dKNR9+Xzz949ooqoUkvV7WYDkHo2A6VWo2odDiswooRZgO0Paws0uOT8N4XEXz5vbJExdG7q3DGTG2P6exIZbObA2G81+TEKm8Q25W6Wjo9b5QSBH9QwkF/qYdcxOKEqWacN8OKakfPJLI99/HNM2cEcotASRAEant79b9asHqrXLcgCS9dXY3h/eSb1mRCEDqgH2DUYYBBh1NqHKjQ9pz4Onlu3p8XxvvzlRGESaPU+N1xWkWu9dxu69xenYgBIfL4tmbUByNY5ZNvHKZkFEoJApWdXvV0C+Yvj79X/2oNqIpn0jAWAVOCOR/DCDACyhAoCYKwaksIZ9/biJBMQv3QPlrc9bty9K+Wj3tngyAQlBoVMMigw2irESdWOUBtfHuCzSaCME8ZQZi4kyB0a1wkCW83ubDM48cv3gAiyqIvCSFRShAoarFwRQCXPta0M1vmf5fUqoFbzirHYeM5UbFb7z2eHCOQZwRKgiD8simIM+9pjHswEla/n2HF6QdaYDPJtxnOFkHoWBeTWoUqrQan9SrDOKux21c7vPdlO0FQEl2ZOFKF3x6n7ZaYkNfgZ08A7ze7sMYXhDcSzYqnRClBoP23tTGCWTdvhyQj7XXrmWWYMdGkaJ3y/Izh2zECjECJIlD0BCEYloRA0i3/aZOF+IELKjB1JJUlyq9AtglCx10sGjVqtBr8ZUA17Bp1t3wp0lzf+6I9xJCMIFA4YsIeKpx3fPcjCFSd8FqDE984ffBJUdlOoun+/lMhCPUtERx1w/aERPm0Ayywm+WJcrrj4/MYAUag5yJQ9ASh2RXFxY82YZVs/gGQqINjx5LmiiB0XN+oVmGKzYQ/9KkQ33XdrYshiSW992UE3vgS/F1+NUQgJo9W45xZ3afEMSJJmNPixovb2xDMUSfQVAhCqyeK655twcKVwbgn1sAajQgzjOwvn4vTcx9xPHNGgBFIF4GiJwjUmOmYm7YjKqPM17dSg9vPLsPogYn1CnJNEDqAr9VpcHy1A3vbzdCpVd2mv8OytVG89XkE23Z0HWw3GUgDQYOj9y/9TPqwJGGtN4Cn6lqEGmJS90m6vz5AUbOmjsuTN+2j73y46aV4bxoRtIf/KN/uPIPh8amMACPQgxEoeoKwRcRdd8gu0UnTzCAt+ip74pdSvghCxwAn2Uw4utKG/kYdjGp1yRMF0kB4c04Yqzd2TRDK7e0aCPuMKV2CQMSgPhDCJ60efNzkyikx6NgvqXgQ6JyVm0M4/W7Kx4k1CQ/+oRL77pE43NaDn3M8dUaAEUgDgaImCJS5PfdHvyhxlLNbz9qZmNXFxPNNEDqGclyVDZNtJvQz6KEv4YqHplYJr38awQ+ruq5k6FWpwgmHqjF699IjCLRHNvmDwlvw0JamvBCDdAnC6i0hnHVfE6jsMdauOM6O3+xrhsnQMyps0nje8SmMACOQAgJFTRDIpXr5E834RibmSi7V284qw+ETTF1Ot1AEgXpS2zQanFrjEE2g+lJb6RJ8bnv9El79OIJFP3dNEPrWqHDakRoM7ldaSXLbAiHsCIbx0NYmuFNQQEzhN9bloal6EMijdt1zLfh5Q3yPh70G6XDrWeWg0BsbI8AIMAKZIlDUBIHU46iLXVhG/6CmTI2/nVomXKpdWeEIQseoJIwyG3FAmQXjrCbYqGi9hCwYaicIX/3QNUHoX6vCWcdoQUShFIzaMP/qC+LDZjeWe/yQk+DKxzxSJQjegITXF3jwwDuuuOHR1nruyqqEomH5mA/fgxFgBLoPAkVNEJzeKA78y3b6GI+zo6eYcMERNtkWz50PLjxB2DkaScLMSjsGGnWix4O6RNwJSgnCgD4qnDtLCwo1FLNRnsFKbwDfu3z42ulFa1iZCFSu5pQqQaBxkGASNS6Ts65kx3M1B74uI8AIdE8EipogfLs6gD/KdLCjpbhslg2nHWAFtXoubg/CrqOzadSYUWHFYKMe421dh0eKYcu5ve0ehMXLk3gQeqtEiWPvqiIlCJKEDf4QvnP7RMdF+vdisHQIwqKdnU2jMktyw+kOzJhggl5bpOtQDKDzGBgBRkARAkVNEC59rFl0cZSzq0+w4+TpyVvcFo0HodMkSLaZchL2tZswwWZCf2PxtpXesj2KN+ZEsHJ911UMxZyD0BwKC28BtWFe4Q2CvAjFYukQhNVbQ7j5pVas2BwfGBk3RI+7f1eOcmtphbKKZT14HIwAI/A/BIqWINAzfN8r6hCUzT/QiBbPh4xNrj1fjAShA36zWoUBRj2mOczYx26GWVNcD3Vag3nftwsleXxd/2xMRuCgSWrM3L94hJJCUQk/eHyY0+zBOn8QrkhhwwlyCKZDECj09uJcD576OL67KXUmf/v6GtSWc6IiP+gZAUYgMwSKliBQQvmky7bJysoesJcRlxxtw8BeyV9GxUwQOpaOOkTuZtCBSiOprXSxqDGu2RjFm59FsGGbsi/uof1VOGWGBn1qCkt0qG8CkQGqTNgRiqA+WKgUxOQ/znQIAoUWSH78hhdbZW/w3o016FPBBCE5+l0f0eaJ4s2vvfh+7f+UKw/cy4jDxptgMxVPCIfyhN5f7MNnP/5P7pSa2P3uMBusCca5ri6E71YHEZap3Dl5evLQbabY5vr8z3/0o645/ndfbtXgyEnFH9rNNT5Kr1+0BGHZxvYOjnJ27qEWXHCkDTry1SexUiAINAWaSY1ei6EmPU6rcaBSl5z8JJt7Jn9fv0XCG3PC2FAnISLjxZG7tl4HjBmmwhHTNOhdlX+SQMSANCwf3NokNA02kQpikVs6BIGm9PH3Pvz1WXmCcO955Zi+pxElLL9R8FUjL82dr7Xh6xVB0L//l8zb1DjnECtm7W2CNUGDuHwOnvQwPvjOh0fec6HJ9b9xmg0qUc3y6EUVsvkoHy724aHZLgSC8eT/g5trYNAlf7bmc56p3ou0c75fEy9JvnsfLR6/pDLVy/XY44uWIPz1mRZ8vES+AcD5R1hFBYMSKxWC0DEXrUolmj+RGuPh5VZoCvSUX7w8gn+9pZAZdFoISho9aroaM6bml+AQOfis1YOPmlyoC0WKKs+gq32aLkFYsjaIO15rw7q6+K+kfUcacN955dBxoqKSR4TsMdtbIph1S4OsIJXVqML951dg/O6Fzx1asDyAm15qBfWsiTV6dHx6Ww3KrPHepLcXenH36074Q/EE4at7amHUlzZBuPCRZlAyb6wRaXrp6qq090VPO7FoCcL0q+vgkeEHxIz/cJQNpx+QPEGRFrPUCEJnokCv2NsH16CPEFnK7w/222VEEMIp35fyFo6apsbRB+SHIBAxIG8B9U1Y5w+VDDHoWOd0CQJ9Lf7rYzdenueJfzGoJcy/q3fJP+QL9TCmZwZJWp8hK2ndPir6Mp8yvGsNlnyMvytPEt3/b6c6cOw+5rihMEHIx+qU/j2KkiBQWGzaVXXwx3uIsPdwA/7vODsoxqbESpUgdJ5bX70Wfx/cC+Rd0GSRKNDLvOOfqHDPAyq1SrgdSRjpzTmpexBo3EdOU+OIqRpBzojY0JCFI0TVHkrJhtF4/dEonqtvxdw2bzYuWZBrpEsQaLCvzPPgrtedMuOWMP/u3iAyzZYeAtQkbuaN8j1gaD9TF9liIAifLGkPNSUqzPnnRRWYLENkmCCkty962llFSRDWbAvjrHsbQck3sXb8VDOuPsGRVP+g47zuQBBoLlTxcGi5VYQeqNohFaJADw/KIwiEJITD9NKWRPvmzdslrFgnYcnKCLw+QKtRiZe6iOVngYhIxPRUwJDd1Bg7QoXd+6lRWQbRmZMKNvQ6FXS6neRB4S+PLumLRvFVmwevNbTBGVGWQKnw8nk/LBOC8Op8j3ATyylEP/1/lRg7uPAu8LwDmqUb7miL4LQ7GtHi2dV1Tz+LUf11uO4UB4b2LXxr7U0NYfzzfRfm/OBHrC5GmUWNRPkETBCytFG6+WWKkiD8420nXvrCg9iqNPoeOml6O0FQat2FIHTMd4BBh1lVNow0G+HQahImohERcHok+PwSQmFgU72EhT9GsLGu3WtQKKN700PWbAT2GaPGqCFq2K0QuRZWM/3/Kqhl8htpyN5IFKu9Abzf7MLPIv5U+l/ImRAEeinc+6YTO1rjPT1HTTLh5jPLCrXM3eK+v9aHcM2/WuELSiDZd5NehXKbGhcfbcPkYYUPL3SA/M3KAJ79zI0tDRExViLeFoMKd55bhkG9dbK/EiYI3WKL5nwSRUkQyLVHLr5YI5fpWQdb8PsZyhIU6fzuRhA6MJliM+HgcgsGGfWw75STJDJQ1wiRWNXilLBgaQTrNkmQhGu/uF+mRA7G70GEQQWjQQWHVYWqMhU0Goi8gpWeAJZ5/Hirkdow5/x3kbcbZEIQ6lsieGS2S5Q8xhp5ib57oE/e5tFdb0RJfKs2h7C+PowhfbQYsZtOUfVUvvEgL9KKTSGs2hpCv0oN9hqk7zIHhQlCvleoNO9XdASBvAbH3LQd9S3xWbmjB+iEQBJtfqXWXQkCzd+gUuFwmw0jgxaogirUNQCffRuB25vXjsVKlyKF4ySMGKTGpFFqGA2AxxjGY74GhOWacqRw1WI8NBOCQL+Vxz904WkZwSTy0iy6v7cI5bAxArEIMEHgPaEEgaIjCBu2h3H+Q01ocsYTBBIpIbdpKslX3ZIgSICmTQtNqxYarwaWrSZIbk1BQwdKNlt6x0gIV4YQ2M0PSdv+71FLesmT6d0/t2dlQhBoZE9+5MITH7pl8xD+c00VhhVBnDy3CPLV00GACUI6qPW8c4qOIDw62yXyDyiWFmvUhOa2s1OLq3YngqAKqaBt0AtyoG3WQdeghyrajfztXfz+JEiCIIRqAwiXhREpDwmygBL/Qs6UILy3yItH33dhR2s8oSYxn+tPS+33UkyPQNJ4+HlDEK2eqCC/lXY19hygx6Da5BVMKzaH8NP6IKg9NuW09KnQYs+BuqKSoKY50ThXbgmBVBvJ21Npp/CADv0qtSJXJ1fGBKEdWY9fwqotIVB/E3rnUKJ2vyoNJg/Tw2LMzsOFksMpREVr3eZt38ukpTGglxbjBuuLWq+k6AjC7/7RiB/Xh+K+hilB6IT9zPi/Y+0p/Wa6BUEIq2DcYITaqYOuUQeNO/kDMiWQSuxgSS0h4ggjVBFEpCKMUE0QkqH4+iwogTVTgrBxRxj3v+XE/OXxojAVNjU+va2XkmHk7RjqH+Hy7bpW/au1oOqkDvt6RQAkBEUP7eUb//dQpfmM7K/DyP567DfSgFED4qsIKHGTYvHLNwXFuR0EoXe5RhxP4cn99zQmlaKmF8frX3lkBYio1JpEkuTUBqn6gfpkxNqRE01C2bDDSL9iW1Pkvy8np7edyFTa1Bg9QI8BNVocMdEEUv7ryij34Id1QXy5LF40hkqLL5ppEy+9WMuEIHzxkx8//BqUDfhVWtU46xDrLrejJMqFK+Wb7l2e5Hk+f7kfP/4aQiimWoneB0dPNqFvlTw+yYSSGtoimL8sIF7atM/W1oVFIiqlc/Wt1GLC7nrYzWqcPN2MmrL0ZMtJq2Tujz5x7Y3bw1i1NSxUOYkgWIwq0L4fszNXJJP75PLHW1QEgV7mp9/VKH40sUZ9F64+3o4pI7rOHv5vhn6n38RzWxpw49qtucQx+9cmjQJIMC+3Qu3VQLfDAHUwO4w2+4Mt3BUjlgjCjhDC1UEEKQyhL2CJRhowZEoQKCGVtBCoZ0CskRregntqiyqn86gbdoCSKzsb6QmQ8BARh89+8OPleV78WheKq2LqOIdezFTCedI0M6gvS8eX4DvfePH6Ai+2NIYTnltmVWP/0UacOM2MPXZLXKZIIc4LHmrC+u3xSpXnz7DitAMtsMlILdOz67S74iXibz+7DIdPMIHKEl/50ouPl/jQ4k5MarVqYOwQvajYGtI7MUmgPJSXv/Tgvrfi9TDoZfflnfKqiOkSBCJuD73rxM8bQnEEgZQ77zin7L9r0rFeFAKjXBk5+/7B3l3+ah54x4nXFnjhC+z6u6ZupXf/thzjEqhZJiIIFHKjlug0pl82BdHQlngNiLDRXpk+2oBj9o4Xm0o0cCo3Ja/Q05+4sWxDEI0y4fLO59J9po82YsowPU5S0KE4jcdM2qcUFUGg/IMrnmwBfRXFGjG6f5xfDnMCtw8RA/qhLFq9K1Olr46GWjdmo7Fkst9Jh0AQA5cW+gYDVOEc+hrT3jrFdWLUGEHEFkawdxCBwd6SCT10JghbGyP4eoVffHHQw52+lA8eY0yqiHj3G214ZZ43zuum16rwzJ8qMbyI8hASEYTrT3Pgza+8mL3YB5I5TmaED3kRLj/OLr6QiRgQQZCTHI69lsmgEkqsZx5kTdjMKBcEge5LL7vFq4OyEs5yc544VI8bTi9L6PHIJ0GgyjLyAFHVTDAcT8Tp+TxtdHyH3WIiCPTlPrBGi+WblPVpIS/MbtVanH2IBbMUkAQiB3N+8OH5zz34ReE9aN0pnFTj0Igyfur1USxWVAThhbke/OsTt4jHxRq59R6+sEI2Luf2R3H98634aX0ojpXrtYDaHEVzXw8Cg/yQjEXsipYkGNaaoas3QNeqgyrEHoNUfyhRQxQRSxiBQT4E+vuyIviU6hhSOZ4Iws29Bghy+9OGEJqcEbj9ktC3sJnVqHGoMW20QXTmSxSTfuFzD/79qVvE6jsbxbRPP9CCy2alFpZLZfypHitHEKg1NYUOvluza2OkZNemh/2h40xCn2D2t164fMq9R+TK/9Pxdhw+Xr6zX7YJAnk8yL1MHoRwcv7z36nT1+XDf6zApKEGWX2QfBEEIgTvLPSJfJfOzas6BnrbWWU4fKJJ1ltVTAQh2Z6S+zutAeUKkDhW/5quQz4UTrnlP21xXjIl96Xf925VGlx0tA2HjC2OjpNFRRAuf6IZ1HwkVhmOvhboS+r2c8rjcCbPweVPNuPrXwIJ3Yp0UlQbFS5o/1AvotYUfqFKVjYLx2jr9TCuNUPbooM6rG4XcGBLG4Govp0oeMe4ECkn+ci0L5XTE20tBvT/sVJ8+VIyk5xZjMC+exhxx7nx+5+Op2Q+atxE7t9YG9RLi9evrc7pHFK5uBxBoAcwCWVRuCRVozAKkSnKNUjVLjnGhtMOsMh2O8w2QSCyRs+1dETKhvbR4ZGLKkR+QqzliyDMW+bHTS+2xZFQGs95h1vx28OsCTtAljpBoDmSN27WPib8+cTEIn1Eoo6+cUeXIQUSsIpEJQTC8nuB9gnlnlBycTGUKBcNQaAfzkWPNmHRqviHXK8yDa450S6Si2KNYm8Uf42NUck9LCi5jeLV3nEuRMriwxipPmCycbzKr4JxlQXGjSaoIkwMsoFp52sQMQxVB+GZ2CaqILIhIZ2VMUYBTbMOtq/L2glhEqMXIcVcqVNj/EtCwrXPtuLTpfGJavR1PvvGmpxmxCcbe+e/yxGE2PMpvnzGQRYcNMaINVtDuO1lp8j+VmKUUHbxTJtIIly8mjodtiU8jZIWrzrejj0HxuuqZJsgxA5i995a0VOG/nvpuiAefNclKw5H59GXJa0hrWUhCAIRT/oIc8t4aCjbn0rPqx2JE/mKkSDQRyd5j34/wyqSEcmIBD38nivhC55yVq74jR3jh8jr8CQS+NNpgLMPseLU/S3/9QLR+25dXQgXPdoSF66h8VBIoxhCDUVDEJpdEVz1dKvIjo01YtDPXFEZF4vtilQkeipQ4l/YEYZ7Siskq7KHjpIHU8rHSIBumx6W7x2KXhApX59P2AWBqD4C33APAkMpma/w7gR1mwaOOZUpEZbe5Wq8d2OvuJc9/Q6ufVa+PXq1Q41n/1QFItnFYMkIAj0U/3CkNa70a+qV9SLLvCu74TQHjpps2qVFOp1D5yayjuTB2L/niiDQznvn+uq47HtKhrz79TbZDyQa2/s3FYYgUD7Y5U/I54WRR+OxiysxuIskShp7sREEavR37SkOWWJIXrzjbmnAdhn5cpoLJRFec0J8yI6I7Fn3NcX1D6K8kzMPsuCCI+TVfz2+KKZfsz1ueya6T75/w0VDEN7+2ovHP5Kv596jnxbPX1Ud92CkLOArn24RZT6pGJGEUK8APBOckIypuyZTuVfcsRKg9mhg+NUE4xpzSi+IjO7LJwsEAv188I3wtIeZkn+45wQ1lVuNso+rUl77XuUavPu3ami18QTnwZ3Z3rGudnpAnXOIBecdrlyePCeT3nnRRASBKhMocZDir3K2YLkflz3eIvs3Ek676gQ7jpkSn2lOLnjyMN7xqrwnIZ8EgUgadYFMpOPQVevmxy6uwMShhrhnYC5DDFRV8tgHbpEfE2tUx3//+RXCU5PMiokgUEXIE5dWghpZJbJ3v/Hi9leccaWVdDyV2l9zgiMuH+SYm3eAkow7G4W+jpxkwk1ndK1FcuqdDVi9dVePNlVOXHGcXSRIFtKKhiBQkuGH3/ni8g8oDkNlUA/9sSIOJ4q93vBCq6hlTdWoUoDyEfzDvPlLXIyooGnWwvZVmRA4Kvb+CKliWirHRzVReEe7Eerfrs6YT4eC2q2GIw1yQNhSRQ4lrHWup+/AnASFbnu5DdQJtbN1dB8kL0IxWCKCQCWA9LLuyiZcWif7Z/o6O/+IxJnfVFZJ95WzfBIEKuXsqkX0p0v8uPa5Ftlcqr+e7MCx+5jj4tK5IgjU8IlKTv/873hSRiGgG04rE8mzSqyYCAL9dl66OvlvYb8r62XF+qh19uXH2nZRKE3kdSAtC2oNMFUmLNgZN/rtnnNf0y5QUnLyRTPtmDmlsMmKRUEQunKR2kwqwaTk6lCFB+GpFtmwhJKNS8f4B3ngG+XJef28xqmFtkEH8w+UjV54F7dSfLrrceRFIoIY6kvKjPlRZFS3aOGYV96ea5KGkZIgfUkOro2v36eOnZc81iRK6GKNHoovXkUeizRumuVTmCAkfqmSQNQtL7WBxJZijRIqqSwzNnEtVwRh2caQ0IGINSKpl82yiUQ6SixVYqVIEGbeuB11zfEhaMoDIfEp8gx0GCXWX/9Ca1z1HZWo3nuefGJxZ9z8IeDw6+LDDMmIrxLsMz2mKAhCszuKm19slVWDo6Sj1/5SBauMKAlN/qJHmvHNKnmVLiXg0IvCt4cbgd19kHS5CTdod+hgXmYTvRPYa6BkVfJzDK099XWg9Q/2C+Q05KBp1MH6rQMaf/q5ALXlarxzQw20CR7Mlz7WDHrJxGbKk0v70Qsr0laEy+ZqMEFITBCI3N3+ahs2yejAXDjTinMOseWFIJCXivZSbDUZ7YOZk024cKYtpZyWUiQIt77cire+ju+SSmJQlCPTOYHw5pfahPc7VhuCJJuPlgl7xf6ewhEJT37kjvuZMUHYCclH3/vwz/dd2BITw6E/965oz8JOZNS7gWRLSRo1XaPqBu9IN4KDfe0u5yyZKqKCtl4Hy1JHUasgCulie1i8LOmlqW3LXM45XB5C1BSB2q+G2q2FOkhfG8q+OLIEv+LL0Jy9Y10I9suNEqN2ux6WpXbRWCtdo6//vQbq8a/LKxNeguLs7y3ygVoUdzaHRY3fHWYVmgiFNiYIiQnC92uD+PurbUK3P9bySRAosTWRwuCIfjr837E2TBqmLLxA8yhFgvDqfA/ufC1enZLmE/viPue+RpDHJZ0S1q5+j0wQdqLz8LsuvPiFJ46B0UORGqz8+/LEMSOSsfzTk81CGSuTBaJyON8eHgQHZYckUCIiVSmYVlugDqT/Ysj2A11StZMBKvOM6na60KgJUnWwvfQzooJ5mRWGTZnFvjx7uRDczQe1WwNdix4qX3sJJ+VeaFwaaJv1IAJVLNYecvAg2D8g+jxky0jfwvKzDRpXZslGJPh121nlOGhsfKlvx1gXrWoXaSHFu85GbukDxxhxZwIdhWzNVcl1mCAUP0FIto6HTzDiwqNs6JegD0Ls+aVIEN5f7MX1z8sntsa+uElaW649QDIck/2dCcJOhIipEWOLNapVpfyDk5PoU89Z6hfMO1ZJLtkCxP6dxHXoJREgT0IG4QZNkw6GDUbotxmhLrAaouiCqI8i1CuICGXua9obHdEXvphjzDua+j6Yl9qg3678CyEWR/FFPsaFwJB4Fx1oCC4ttI16ISFNnoWODpWFDr/QuIO9AwgO8CHUJ7XKGLm9pqvTw7TcCq0zsea/sj0qCZfmJcd0rYhIyVJn39cktANibcpwPR65kMoqld0xV0cxQSh9gkCiQZR8d/QUU0JxpM77pxQJwmsLPLjjVWUeBCYIuXpaAEIa+Z43nKAwQ6xR6dN7N1SLFqjJjEqEPv/JjzlL6TrpPwWjhgj8g30IDPRBMqWuk6DbrodxtUW0Yy7UFzJVaBARCPT3CyIAnYRweRhRcyQpNOT5sHxrF1/96VqXBCHmotTCWtNCIQ01VH4N9FuM0Lg1BcvVEB4WWxj+3b0IDowXHlKKSTbJwekHWkENghLl4XQe0+l3NWDllngPCHUxvOPcspRix0rnmspxTBBKnyDQepNoEPXPoOZHyawUCQJVBMk1QKOS2j8cadslXPf7B5tEqX1szgZVMZy4n/ImT51xbPee62U7libDO5t/L3iS4oJf/HjoXRfWxpRn0SRJY33+3bWKv3pI55zqpe9705WRUjF5EoJ9/fAP9iLqUC7LTLFmcs9rnDqospfKoHi9hQhURQiBIV5I5CkgUpAiySH3v3VhWUYtpTti+uSJScUEWWjTQhVQQ9uog3G9CShEOagKiJgi7d4kOS9IV5OKArp68hzYoM0wrEA0l3QBqEkMZY8rsb8804LPf/TH6f1TDf4fjrLKagUouW62jmGCUDoEgRT9zjvcInpkzFsWnzEMMgsAACAASURBVAhOoQZq19yViiLtm1IkCEfftEO04461wbVaUEUJdV/sMGqWRgmNsVLp1GDwvt+XJ222Jvfboko3ykUutMev4AThmTntrUCDMlIGA2o0ePO6xAmKcsD6gpKQWBWdHWVkm5U+6Cgngb6+/SM8CFcn11mgSgXLD/aMXqxKx9b5OHoZ03/I6xHuHUDUHBVfwOk6Uagc0zavDOpgcq9NV+P1jHWKUE26RiSByIrap4Z5qV2EI/IdgiBvklBf3F3hPIIqGDYbRU8NjSeTnANJCKRcMMOG6XsaRe94pTZ/eUBog8Q2PKNw3dGTTbju1K61BpTeJ93jmCCUBkGg/dIeRjBjwTI//vxMa9ySk/z3Axe0iyV1VfFYigQhkXLnoeOMApfOpOjHX4P401MtcY0CSdjsj0daFVUypPt7yvV5BScIRA5oA8kZ6WSTOydVo5abDW0Rkbj41MeunQkkyh+yHfcjdzO1EfaMdSFcG0z40tU0aWH9tgwaX2Yv1VTnSePzD/OIuHnUEhW5BukSg4570xe8fW45VFFlX6yJxuzd0yXc9JmOB9SzwE1eBZUgYGqnJq86EuRN8o10JyU7Ko8alh/tIrSkDqaPHT2YqfnNIeNM6FepiZMcTrZHSFr4N7fKS8XOGG/CbecwQeiMYTEJJRVLFQPhc9I0My49xg5S4qTujS/O9YhWz7HWp0KDf19RhSp74j3fFUF4/spK0dY8kZG+wIeL4wX0SKyJepOMS6DkeOEjzaCk3VhTIpREJYvUmCoUiXcDU8jg6hMduxAiajI2i+SZY9qUU3Iw6SXceHphf3PJnhld/b2gBCEYkvDYh248O0eeIHx5Zy9FcddEE6S2qtQK+vWFbjzyvgvqNAVqKNtfMkQQqg4J17ekl+Cc3ixeVKSpb59fkdFLIdUFFMRgiFf8IxkkIIulmepWDRyfpdYjQG78vuHudpXKDJI9d7ku5VMG1dC0amD+kTw1+ctTkDRReMa4/peTIPpoGEBxJEr8pPbcptVmqEOatLtwEn0l8Rlq6tKvWgOjLnVC24FXoq90an50y5llabk8U92jiY5nD0LxexDGDNbh4T9WguLtHfblz37c/J82tLrj87KO2dsEUnrUaeT3LBGEJz6UD/uOHqATvULkjErYX5jrke1ymiuCQOlbJ97eAOqNEWvkMTnjQAv+eFT8R+uZ9zRgxeZwXCUdhWnOPdSKsw4ufIlxOr/hghKExWsC+MfbLqxMIJX83QO9M47BEAd8dnMDbv6pDuafbTBsS1wmlhRA2v87SSWFINz7tMK2oBwqKf2HedJ7djpA9JCoDcAz3tlODHJwWw2p/X1emfG1/QN88O/hFiGPrBrhHwX0m41iPfNVJUKkzD2xTeSm2OdViLbcIuTRsScyyDkZ2V+H/5tlx9jBemiy4IT6w8NNIm4cW/ZLwi1UnkayxoUyJgjFTxDm3VUbF9aivUR6M5RQHmsUXphzey+Q3oac0Rf5I7Plu1VSIjqpg1ISbYeRF+yJj1x4/jOPrFgTHZcuQaCYPuUG3Pnb8rh+DNGoJCSPf6GSeZmJ7L+nQXgDOro/dj6EKuiOvH6HLJlxmFWCVJw4LTFJIEXMb1YG8P63PtxeYC9f53kVlCC89bUXd73ehqBM2bndrMLcO2ozfo7RQj+3pQE3rt0Kyu43rjeLJkkarzbtr72MB5XqBVQSwtYwvGPcCFcnDnWkelm547NFEIK1AdHvIGrPnqZA3HjDEkzLbDBsNEEdVQE5JmqiOkS0380OM6Mch0l76vD4mfEdGjNZy7cXUnOi+GYzFL447QALLpvVdblkJvdOdi4ThOInCF/dUyvrZaKQLTUFI/IZRxLUwNf31sp6Ecj1fu9bTtHbIZERUSACS+GMRCJNnc9NlyB0vgY1bjpsvBGVNo1o9fzt6mDCjqHkHZm1twl/OdmRcA5n39sumJTIxg3Ri5D5iN10/w1RRKISXpnnFUKBZESU7jy3rChUT8WzTup46iX7ZWf57/SofXWeB3e9Ll9reur+Zlx5fOLFUDqczgRBnEM5fRJg+6Ys43ix0jFkclzEHEaoJgjPOGfWXkxdjYcIgn1uRcYJgaHKILx7uRGhMsucmgTtDj2MKy3QkfgSEYUiN1LrDNtCcE9txdReVjw3ZkhWnUG0v/e7Sr49MsWWrz7BkbFnLl2ImSCULkGgNX/hcw8e+8Al28iI1DpJhlnO7nvLKRLH6Us5FaOukYEQ4vIBskEQlI6DcgkO2MsoyoTVST4OkrUzV3JPSoS85ayyhCEbJdfI1jEFIwjkRqL4Ugdzip3Qhzf3Qk1Z+sleHdeLIwid/kBuasM6U0Y1/9laiNjriDJFWwiuqa3tjaTy9N7LFkEI28PwjnUiXJVrgtCOHPFc8w926HfoM6wgyNWKtl837AgJSWffMI8gfPuV23JCEKZfXY/Y1s90fxK3uep4R0qVEdlEhAlCaRMEcqXf96YTH3zniwthUQfIF66sAn2Zx9qcH/ygnIKNMn0mEu0vasl8zqEWUbb784ZdlXLTIQjkBehTqUlpDEQOSI/gmhPtijQfKOftd/c3YW1d+p5T0pi4/Di7CIUU2gpGEEia8v63nbLd5wiUBffUCh2ETC0hQei4cASwfl3W/vVZJNK/YXsI4cqQUCNE5hwpJQhFkuLnlRl7ECLmCLzjnELBMV9GJEHX2C5UlYkSZC7GK+mighy49mlrTyrdubVzQRBo/Kfe0YDVMtoilMV96TE27D0ifaXMTPBhglDaBIHWnkJYlHi4vTVeJ6B/tUYkHcrF6f/1iVt4INq8yd0I1IOHvF1UZvnkRy68841vF/d/OgSByAF1VyQ58hWbk0vzU27FlBEGnHWQBdTmWalRBd1fnmnF2m0huHypJSfZTGqMHqjDjAlGzJycnsiS0nEqOa5gBOGLn/yiXtst02SpwqbC7Bt7KZLxTDbJpASBLhAFzD/ZRDZ6Jg11ko1Fyd9DVQH4RnqE4FG+yQGNT92mheOzzEMMUX0EngkuhHqn32lTCV6yx0iAZbEduh2GvFaXJBovEQMiSqSpQKqWnS1XBOHNr7y47ZV4LXki3RQHPeOgwmRVM0EofYJAIay73mjDOwvjxYFIs+P8GfL7i6rKnv3MjXcWekW/ELlukVaTCsP76jBrHzMOGWsU7wBKcvzH205Q350OS5Ug0MuekgzvOa8C6+rCoqpi9dYQNjXIC+GRCiL1ASKhshpH6pnD1KH4tfke4fmgJHxSDE5kFLWgNtJU0UFCTKceYAERhWKwghEEkla+9tl48Q0C5YSpZlx1gh3aBGUzqQCniCBQMkZYBf0mI4yrdyYwpnKTLBwraaOiYZJI7LMpV2/Mwq13uYRIUpybuGOg0vtRh0jPJMr6LwBB2En6aC2J9JF3qFAmCN8wb7vYlib+ayJXBMHjj2L61fE95gmH84+wio50hTCKXzu98TiQW5XCH11ZonylqSMNoH8SGSW+PfaBfCk13ZPuHWvUHZay9ps6vZQ6jqF7TRyql/2Aoa/qZ+fE95Whc+mLeGCvxAJapAT76VK/7D2njTZgynBDnCARvWSXrA0KN3ysqdXA/82yyT5Hf1ofFEmDIZlHzeXH2ZLGv0mzgbLu5bro9ipTi3LdREYvfKoUoPbIO9oiiEYgXoh2i1roKey/p3GXMMXWpojI7u/ca4dKMI/dx5SwYdSr873Y0KlUsT2PwIAJu7fvEwoFLFwRwNJ1IdBvhbwa9L6ptKmhUavE+lJZcKZW3xIRa0OdiikhkfYiYUbjqbBqYNCrRD7QiH5azJhgSln3JNPxJTu/IASBJCmpguFumZIZGvATl1Zi/BB9VhKplBIEui9J/RrWmmFekXhzJwM0nb9TIiKVzwUG+RC1Jne/pXMPReeQpMIOPexflSs6vKuDyN3vmdyG4G4FIgg7SYKWGmf9aoJha/5L+yhU5N3TjXBN4sqTXBEEmv6ES7fJ9iWhSgbyIqSi0JjxhuALMAIxCISjQF1TGPTfZWY1yhXKiWcbSJc3Cvri12lVqHGos/JhKjdGIgjkSXB5JVBFUZVdI4SoitkKQhCITf3jHSfmyrBeAmv2jTWgGFQ2LBWCQPejZkvWr8oyjsErHTu5n0lxMFQbhGQoIDkQL1TyohhgXZJ59QhVi7jJg9A//YZHSjHs8jgJoAZUppUWUQ6Zr2RPGpMSsahcEoQTb9+BX+vjPxFJGveyWTaMHlA4z0pW1pYvwggwAjlFoCAE4Ydfg7jq6RY0u+JfiJTc8sqfq7JWB5oyQdihh3VBfghCuDwI70g3wlVhWfdzTlde5uIUZjGuNMO0OgselGIhCDvnqfaoYVxhhXFTfjwJSjta5pIgPPeZBw+8E19GTBojVEJ81KT8YJHvfcz3YwQYgewgUBCCQBrZl/yzWbYmdvIwA/5+ThnKrNlJ0kiVIKj99CKxCEGlXBp5DkjbgDou5vOrtqs5UYjFvNQGw5bsvDiEB2G3AnsQOk1Y5VXD/IsVhs2mnItkFQNBoESwmTfuiFtyStgiPfl0W9Hm8nfB12YEGIHiQaAgBIGSWy56tFkWheOnmnHpLDtIICMblipBINc4dRKkBDfT2txkekcsYbj2bkXUHikackBYU68D6yI7dA3KS3oSrRG9ID0TnYUPMcQMUOVXw/yjNac5CaJXxkAf/CM9ScNGufQgkNYIdaWTs6tPsOPk6bnZ39n43fI1GAFGoPAIFJAgNMkmUFFTi9/PsO3SKCQTmFImCDtvZlhvEqWPudBGoAz/UK8AvGNdiJoKnHfQ+Qs7oIZtQRm0bfFZ3amuAREE8iCECpmkGDtoCSIJ1bTCAnU4Ox6quFuoJQQG+uAb5VbUqCqXBMEXkLDfVXWyvzMmCKnuaD6eEeh5CBSQIMh7EMjtefExBfQgkBaARwPjLxYYNhtzl6yoAiKmsKiNDw7yyT7E870dKbxim1sOjS9xKZbSMQmCMLkNoX4FrGLoNFi1l7xCFhg2mHIux+wb7IFvLGmrJ/eCFYYgSEJumT0ISnczH8cI9EwECkIQKAeB+nXL2T4j9Lj17PhOW+kuT8oeBAkik9/yHenVJ3/Apzuuzuf5hrqFOBKyU7iR9pDUPjXsn1Zm7evaPam1sGWOhASVbjboYF3sEKEj0YExxxaxhoUHQYkGRC4JAkktT2MPQo5Xmy/PCHRfBApGEC5+tFlWSYuU3t64rhq9yrLztkyVIGhadLB8Z4fWlflXdCrbJljbrs8fqQgXREGRxqr2auD4uDJr7avd49sQHOBX8iGdClSKj6V8AypbpfXMF9nrGJxvd097DgLJKndhuSQIP64P4rf3UyhvVyPeSyGGk7poP6sYZD6QEWAEui0CBSEIP1KZ479aZBXD6JPvnet7idaf2bBUCALlG+g3GkUmf75fKOSSJ6U9zxgXQn0DiuLX2cCn8zUotOL4qDJrc/eOdiEw2Jf0JZntedD1SBHS/LMV2gYS3Mq91yB2DpRn4t2zff5dOS1ySRCueKIZXy6LD/FQKfGVx9u5zDEXG4+vyQh0IwQKQhC2NUXw0HtOfLJEvgTuljMdmDHBDJIKzYY9t7URN63ZQi0XujRNsw72+WVQRbJ04zQGTwqEvj08CNcGEaZWyXl8txFBKPuoKmv39A3xwj/cA8mYDPk0gEpwCoURNK0a2L4qz0s4oauRB/r5ROgoak0snZ0rghCJAFMu3wZJZgNNGKrHpcfYhfY7GyPACDACiRAoCEEIRyTMXuTDLS/HN5OhgVY71Hjn+pqsNGui633U0Ipb1m7FNmosnshCKqG2Z1xjLviLhbwJ9FLx7uFuT/LLE0nItgch0McP355uRC356S2hadBBX2eAcZ05a2GSTB8dnj2dCAz2JxTCIoLw/Jghmd4m7vw5S3245t/yvU6oUoiklqkRDhsjwAgwAkVFEGgw1MDi+udb4QvKx2hvOqMMMydnR7BneyCEe9fX4bV6+cRIGo+mSQv7l5l3MczmVusQ2wlVhxC1p99fXOmYRA4ChRiyxEhClUF4x7kQyfXYwyroduhgWm6Dxq2FKrUOq0rhSeu4UMVODBzy65cLgkANYY6/tUHoy8eaTgvRqOncQ7OglpkWInwSI8AIlAoCBfEgEDjr68N4+D0XvvhZPszgsKjw0tXVog1mNuzN+mbcs74OdXJehKgKlm9tMGzLDiHJxng7rkGiO9Qymb7GQ/1zWzJIpYBlH1VnbfjUrIjEkiJluSM3lGtAHRupfFHjy85eyRoAOy/kGe1CUCYXg77fD6i04+k9B2eJkrXf8J/vu/DvT92ySqWjBuhw2Sw7JuzOfRiyvc58PUaguyFQMIIQjQKvzPfgvjedstUMBPQRE424+czyuBan6SzC9mAIf1+3De/taIm7X7ZaHKczLqXnREwR+Id6EKDmR/rcfCKTFHF5FgkCdan0THYiXNFFaEcpALHHSe2NtSgkpG3W50TQKt2hxZ5HZY+ufVrj2nhX67W4anAfnFhbka1b4ZV5Hjwy2yXbhpcIyW+olfrx9qJrK5s1APhCjAAjkDUECkYQaAZrtobw4LsufL1C/suYemafsr8FVxxnz8qEf3J5cfOarfje2alfuwTY5pdB15i5vHBWBtnFRaL6KIK9/aK/Qbgm+y9damhU9nH2PAhRXRTufVoRrsruWEmvQbfFCMNGI7TO0ki0E16EIT5ImnZyp1OrMKPKgb8P7w8LbfQs2CdLfHjgHReoB72cDetL3gMb9h5R/Hs9C3DwJRgBRiBDBApKECJR4PnP3HjyYzdIN17OzAYVTj+wPakqG/Z9mwfXrt6MVZ720IbarYHjk+zF3bMxxq6uQeVz9EXqH+ZFsJ8/q5oJaqcGZXOqsjYFSR2Fa2obwtXBrF1T3aaB+WcbtG1aqAPFGVKQmyx5gJwHNEPaKa3d36jHU3sNxlCzMSvYrN0Wwt1vOLF0XVA2tED954+YaMJfT3ZAr+XkxKyAzhdhBLo5AgUlCIRtozOKe95ow6dL5XMR6FFWW6HBJUfbcPiEzHMEIpLUXtWwbhu2+0NCWljXmp14LCUVZivBL9m+oxcOeRICg3xZqxKgKgDH/Oy5u4Xc8tRWhHplgSBEKKRggGm5FVq3BpBy/5LL9np2CEcZNWq8MX4oRloz38+0T0gx8YG3nZj9rQ/+kDzRppLG288uR98s6Ysk25/8d0aAESh9BApOEAjCFZtDuPt1J0j5Tc5ID4GSqv52ahn6Vmb+1RiIRnH7um14dWMzjO9XQp0F3YNgdUCI4lCTJ/2O/LhwJW0URBQ8E5ztCoyZGElMbzTCusSRyVV2OZc0Hdz7ZYEgRCiJ1A5dsy5vXoOoJioIWNQQhXlVdjL+o/oI2mY04q3JwzDGnp124pIEPPGhC8/P9YCaM8lZ7woNbjjNgUnD8rMvs7aB+EKMACNQUASKgiBEJeDtr7148mMXdrTKi+pQmHbGBCOuO7UsKy5SXzSKM5+qx/rlKqHXn4lRXNk/yAvfaDeoEoBc4Pq67LiOlYwrqo3CM96JUJ9A+iEHCTAtt8C0OjsvQxp3xgSBWm+HVHB8XNXeHyLDdVKCpRi3VoJ/sBf+ER7Rv4FwMWzJxte+hCsvNOOUEWVZq1p47jM3Hv/AndBzYDKocPbBFvzuMFvWhMeU4sjHMQKMQGkjUBQEoQPCG15oFeqKwXDiNwHpx5OOfDbUc+nra/rVdfBmWD1I3gPXfi3/k/QNq4T+v2Fb/kgCucOpWoDGgXTaSFCp52IbDFuz8SJsX9GMQgzUmnmNGebl1ryKHhHZ8o52IzDI+9/1pM6e5pWZE6fh/bR45oqqrBBcwpe0RO59sw31LfKkmn4jYwfr8dRllaX9lOLRMwKMQEEQKCqCQLTgDw83YcmaYMLSRxJ6+e1hVpx7qA26zKMN8IWjmHHtdrip43IaRpUFvj3cCAyJuYAEWBY5hLKfKg/x8o6h01d764xGSMb23g5KjfpQ2D+tgMabDruQvwsRBNe+LQjXplDFQEMOqWCfXy4SEfMmIwkgYojAM7mtveqic4pDSAXzj1YYN6UfFignXY8/V6PGkfmmJYhIR+SR2U588VNidksaIrNvqsmat0LpXuLjGAFGoHsgUFQEgSCNRCWc948m/LwxBPrCl7OBNVpcfIwN00cbkY0KsWXbArjowWa4vSkuqgoIVQTg3L9FNjmRXtbWRWXQ1xugiuY+qe6/JEFF/RzcCPYPIGpWJnNMpYOOD6qy3tjIO2pnwyZdcrJC7nxtsxamZVZoXfktX4xYwnBNbUHUEpXlJMaVZhhXW9JqhV1lV+PRCyswpE925tTmieLFuR48/Yk74YatLVfj3RtqoFHnb9+l+OvhwxkBRqDIESg6gkB4bWkMg9pBb25M/HI7YC8DLjzKjsG12ozDDVRu+a+5Tjz9gQehVD52dVF49nIiOCDxVxyRBMv3dhjqjFCFslPvrmRP0dc7SRx7JjkRsUUAdRcv6CjES9m01qLk0ikdQ2WZ7kmtCPUOJs6PkKjVtBrGVRboNxuzkjSayiDDZSE4p7a0C1Alep+mGTYqs6hE3sy0UQZoNZm/rKli4a2vPbjvLWdC7woRkof/WIGhfbNDSFLBko9lBBiB7oNAURIEgpdEX25+qS1hrwY65uTpZpF8VWnP/MXb5o3i1ldbMXdpIKHnInbZ6cXSdmBT0q9uIgkUS9dvMWbVha9kG4ZJM2GEB+HKkGw5pCqsgrZeD+siR9J5KLmf3DGk25Co8ZQqqBKtmY2/mvOa2NkxzlBlAO4pTkUdJ4UXYa0F6qCy/abXqXDyNDPOOtiKCpuyc7rCmHJzPvjWh9teaUsYgqMGTCSGdMJ+lqx419Jdcz6PEWAESh+BoiUIBO39bznx4heeLl/Y1HSGutNRj/tMra45gtteacXCFcnr9unL2DvGJXQIFBkl3W00Qr/eBF1LdnQXFN0XACXehWoDCPYLIGILQ9JLUAdU0LTpQB0cTSssOc+ToLJB6uxIFR8d7Z9VQTVInMlAxMmTvdwHJbiIHhc1QXjGOSGZlbWjJjJjXVgGXVPy9SNfwT57GHDpLBuGZiG0QOG2xasD+NvzrUI7RM4oKfHoKSahPGozZf57UIIjH8MIMALdF4GiJgihsIQ7X3fira8TJwfotcAlx9iFxrwxC+1r19aHcNfrbfh+ddexhgjVtB/VmFoOnQRoG9v7B1BeQr4taoi0exJMUZCssq5RD4RJ2ilz17eSuVDYA2ogamoPHan9moL0UJBI46A2AN8oN6JWZeSgY36mn6wwbjCDPC9d2ZhB7U2RxgxOTiaUYEek4NpnW/DdmsTk9ZCxRvzpN3bUlGWeCKlkTHwMI8AIdG8EipogEPSUkEWlXO8vlldapGMoW/v60xyYPMyQcT5COCph4eqAUKZbv00+B4Ki+SL5bniqWY2i9g8apxbG1WYYNmevpLB7b9PszU70s+jrF42vUiUHgtS4NLAtLBNtpRPZsL5aofy5z0hj1qjXTS+24d1FiffbfqMMuPxYOwb2yq8nJnsrw1diBBiBYkOg6AkCuVbX1oXw91f/v73zAJOqOvv4f2ant610BaSogIAtakBFiDGigkZjYo3Ghhqj0XwmxKiJUT8STFCMvWGIBTRGbDGAChpD/EQRiFIFpC5t2d3pfb7nvWCCZO7u7N4zw+7c//HxQeHcc+/5vYe9/3vOW5qxZK3+V/2wgxy4/+pqJVuroXgWLy6IYPrcCEKR/3buE5+CxjN3ALbWPfPzGlxzyquAdqa9vv2hcx1tMXX055Hqkom+Ma0iZqHHCv81Jynu9f6e4l55zC8OgnLkJT4A4g9gtMn6l1TkM97TFwfijCh+ByKQVUT1GH1mXk8CJFAeBDq8QBDM4pw1b0kck18KoimsvyU8crATUyfUGN5FkHtub87gkTdDeO2DGKQ09d4tWZdA+MQmwytA89xf4YVTtqwNj8YBWiKQ9qe0Alfii5FztlPY7bmBbZsD/oWVEB+KvZsUQTr5cCduOCuAuoCabf6H3wjhj2+FkdIJ6PG7LVpekHNGeuF1cRXxbwEJkIA6Ap1CIMh0I/EcXvh7BPIDU8IS9dpJw1z43eXVSkSCOC1OebkZ7yz5TxijnKM3j2lAtqqw/AKtmcoSs8ItImG9u6S5Elp7rnL683QghejQMDK1KS2NsuGWhZb+uSL2VREgBZHuvqQKB9Sp2eZ/e3FMq9C4ozn/gpcaJWeP8GDCWL+SKAnDXDgACZBAWRHoNAJBqIdjOe1r6qm5+gliJLvi+Sd5NQcxFW39zjQmzWzCwpW7jzdEIDSO396+dMY6DyQJgjSfhC/csJYwV4IKPh19jLQ3jfBxzcj60+2vU5Fnkr4FlXBsc/27PoSc/d83oRoHKhIHW5sy+Pm0Rnz6RUo3pPHUo9yaU6KKEMqObkc+HwmQQOkJdCqBIHh2hbJ46I1Qi5ENdZVW3HFhFY471HikgJwBf7gmjnteDGJdfQaJA2KIHB1U+rLRzJ62wLnWDfdqL6wJhqip+KuQcWUQHLOroBwHbb2f7PxUzanTojCqfRbcc3kNjuivJmJBHGUnTmvEe/9K6O6Wydq+9bxKSKVGNhIgARIoBoFOJxAEwtIvkpg6K4TFa/VDvgb2suHR62pR6TX+shWR8MCcZrzwThSbR+1ov4NbaxaUMMh6B7yL/aiIq9mmbu2W5frnknehcdx2WIqUalgcVatf6Qo7LFqyrqtO8yvxI5G1JkXL3vwoprtz0KerDTedHcDxg40L4HK1P+dFAiRgnECnFAgy7RnvRvDUnDAaQvoOCUcNdGhOi26Hcect+cF9/WMNmN1nC1IuNf4Hec0nEQ7hCvgXVJU8eZDx5bT/R5AESFlXRitYZVFR8rOFKfnnV+MwjwfP3txFic9LOgs88kYQz78bRTyZ31fC47TgO8d7lB2h7X+L8QlIgAQ6KoFOKxAE6H2zgvjz+1HdChzBKAAAFutJREFUdMzyfhg9zIVfXlAFn1uFSMjh3E9WY1EwKukMitukouG8atjCzKdfKGjJ0piuSiJ0fBNQgp33PhEP5p12sBJxIJEy85bGNSfcddvSeadsq4BWoGzyZWqccAvlyn4kQALmJNCpBYK8pCfNaMbrC2NIpPK/siXl7HmjPLj0ZB9cCnYSYpkszlm0Cssj+ombVC2lXDaHyvm1sDVRJLTGVBIgpbrHERkW3l10qcjtILcDrx11KLw2BUdYX5Zvfi2I+f/KX/hLxO5xhzrwh6trlQiSIuPh8CRAAmVAoFMLBOEfjmdxxzPNeO+zONI6O/8De9pwzel+HD9ETXnoVZE4Ll26BvWJNpR+bO9iyUA7bpAUzZac8V2Q9j5GR75OS4DUJ45EvxhyzralTm7PvLo77XhoSF8cHvAq8TvY3pTB438L4y8tpBQf3NuOB6+tUVJzpD1z5jUkQALmI9DpBYKYbMXGlObYtWZrWrew04hBTlw3zo9DDlDzNf7clgbc+flmxPfNolSENSRFgjyf+GHf5oQ1bfyLtQiPuN+GlBwH8QFRpHolkLMXf+fAZbXixr7dcXGvOrgVpC2UqJyn3wrj2XkRXYa1AQsmX1aDwxXVddhvxuKNSYAEOhWBshAIQvyND6O4a2YQSZ2jBulz8hEuXHu6H+IFbrSlcjlMWrMFT2/aUXx/BACWuAWulV44N7u0IkdsgJTbjg0KI9U1BVQUXxzI/s23u9dgYr8e6OIwLjSjiZwWrvvQ6yHEddatBGFIdUbJ7cFGAiRAAqUkUDYCQaBNmxvGA68HAZ2tePlhK+VwJ5zmRzcFFe+C6Qx+s2YLnq9vKInNLHErnBtccGxwwxY0LnJK8tBFuklKxMGQMNJdk22rqGngeU6tq8TE/j3Rx208vFCygX60KoFJLzZj4w79qJiLx3hx3bgAxEGRjQRIgARKSaCsBIJ8Qz45O4SH39DPtChhYleN9eHsEWpy129NJLWdhFe3G6/NUIjhLSkL7JudcH3ugS1o/Cu2kHt2tD6ycxAdGkK6LlUycTCy2oeJ/XpiiF9N3YwdzRnc8nQTFq3Rz+Vx3iiv5jvjY42FjrYE+TwkYAoCZSUQxGKybSvloWf9M6ZrwF61FfjVhZUY3s949btMLofFwajmj7Ak1I7yz+1YZuKT4F7uhWuN+bad0/40osODSMuxQolab7cDN/XtgbFdquBQkHhJio/d/GQj3v8sf8SCTGvMcBd+fFYAPWsrlDhClggVb0MCJFBGBMpOIMguwrr6NH4xvRGrNuePJxf7SWTDg9fWojZg3OlPHBVf2daIyWvrsSulf0+V68a+3QH3pz7ThUCm6hK78xwYN1tB5hCnxEt61eGaPt1QqWCfXxJu3fzULszbqwDYvg/Su2sFfvadSnyN5ZsLshE7kQAJFIdA2QkEwSTnux+sSOCnTzXqZqSTfof0smHaTXVw2o2HD4bSGTyxcTse3LANmeL7ywEZwLskoBV4MkuTREjxvjHEhodKNuXxXatx24BeqHOo8fl44LUQpr8d1q2xIL6PN50VwPjjPErWZclA8UYkQAJlR6AsBYJYKZXJ4a1P4rh1ur5vgMiCIwfY8dj1dUoMG0lnMeWLejy1aYeS8VoeJAfPkgBcazwluFfHuIUkQ4ofEkF8YGmOcsbUBPDbQ3srEwdSO+TGxxoRjOrnarjmND8uGuNVktSrY1iNT0ECJNBZCZStQPhSJLz6QQz/O1NEQv5dAslQN2GsD1ee6ldiQzli+PXnm7Ujh6I2k+4gJA6MI3pksKhoZfDBPrcmDg7zqdmhicSzuHDyTmzcqR+x8P1v+DDhNB9cCna0ig6INyABEih7AmUtEMR6kqXuidm7s9TJ+W++5rBZ8PRNtcqSKC0ORnDn51uwKKif/MboyrLXO+D5zIcKk0UyJLskEBYfBOOnQromqLbbcF2fbrjsgC5GzaRdL06Jl/5+J1bq+MSISJXKjOKU2LebmqMMJQ/OQUiABExNoOwFglj349VJTH0liGUbU7oioUulFdN/UoeuCvIjyD2nbdqBhzdsw45kEZwW04B7mQ/uz00YxRBIITo8hHSX4kQx2C0WnFJXiT8M6atEg0TiOUyc1qj5xGTzCFTROb272nD1aT6ccqSa3QpT/0Tj5EmABJQRMIVAEFqvfxjDQ68Hsa1J//y3fw8b7p9Qg+41xrPS5HI57ahh5tZdkAJPqprkQXCsdcOz0guLSdMuJ7smED0iiKwnq3QnQV7WI6r9+NPw/krEgRQQe3J2GC/8PYJQLP/2VcBjxUWjvbj8Wz5VS4TjkAAJkIASAqYRCELr+XcjeGpOGJL/Pl+TwnxfH+TEbedXKQl/FJEwceVGzNreiGS+z8dCTZgDrNEK7V9bgx2u1R5YUyWK8yv0GUvcT44aEv2jyPqyyHgzSlItH+734LnDByipsSAlOt5fFodELaypz7+LJEm7zhnp0Y4W2EiABEigoxEwlUCQD/knZocw492orid5lc+KC0Z5ccFoL9yKykPfuHw95jY0591i1l0QGWg5DiwxKywZwFHvgr3eyYqOewHLWXJI16aQ7BVH1plFzpFDpjrVrqJN3Z02PDW0PwYpckpcvjGFqbOCWLg6f6ZE8XsZe7Qbt3yvkmmUO9pPRT4PCZCARsBUAkEmLClu750Vwrylcd3CTgd1s+HaM/w4aZgLChLnYW00gR9+tg4rIvEWl53UWrDtssMat8KStsCxwYWKZpu2jW5Rsuldvqs+hxyyngySvePIurLI2XaLh6zsLrTSbBYLbh/QS6vQqKKtqU9pOwfvfZo/U6I4JR7R34FfX1SFHgqOs1Q8M8cgARIggX0JmE4gCIAl65K4e0Yz1rZQHnpIHzuuHx/A0QMdSlbNnJ3NuGHZF4jvfdQgRweRCkhWREmfLEcIWkln2TWgIGg3dxELIhBS3ZPIBKTSI5CuSSFdncqbgVGiFaQIkzgoGm1bGjJ49M0Q/rowprtjVOm14u5LqvD1Q40XfTL6vLyeBEiABPQImFIgCIy3F8dx14zmFpPWHDXQgRvGByBiQUWTyIY7V21GxS47bNsdsKZ2iwJbgwPWpLl9ClTw1RtDMjBmqlJIV6WRq8hqv0oVyJwji4t6dsHN/XogoCCNcjiew6wFUTw+O4xwLL+fi0iQ286vxJlfN0+Cq2LalmOTAAkUj4BpBYIgnf1xDL98thmpdH4Pc3lnfOsoN6461Y8D6oxHNqRzOUxbvRMPPBvV8hdYMsa/WIu3NMpzZPFbkGOHdCCNY4fYcfuorugdcBjerxH/lo9XJzDphWZs0CnfLNb+2bmVOPcEioPyXF2cFQmUFwFTCwTxNH/pH1H85kX9TIt+twUTxvq13PheBWV3Q/EsHp8bwrNzJYkSBcL++utU67di4ncrccJhTtgrjNthw460lu9g5Sb9vBeyji79phfioMhGAiRAAh2dgKkFghgnlszhV882aXUb9JokUbrr+9U4aoADRo+pJZvjuh0pTHqpCYuWFyGJUkdfcR3g+SqswI/G+XHO8V5IqKHR1hDM4oZHG7B8o749Rwxy4hfnVaJ7tfGdKKPPy+tJgARIoBACphcIAmlrY0ZLhbsjqJ/QSETCQ9fWol8P46lwZTt6wco47niuCY3NpSj9WMhSME+fK0/14eIxXnhdxv0+5HjqJ080YsHyhG6WzmqfFfdcXo3h/RxKomLMYynOlARIYH8SoEAAIK/otfVpnP/bHbpleMVIEpI27cY6iFgw2kQkvLEwirtmNCFDXwSjOAu+/uwRblxzRgA1PuM2lJs+804Y978a0l03Vis0cXDiEBfkv9lIgARIoLMQoEDYYykRCcvWJ3HplJ3I5vS3nY87xIF7J9QoO0ee+V4E97wU1P367CwLqTM859C+dlx/ZgBH9lcTurppZxpn/np7i5VCJdeBJEQyejTVGfjyGUmABMqLAAXCXvaUqnuzP47j7pn6kQ3S/VcXVeKMr3mU/NAPJ7J4fE4IM96JIt16Tp/yWn0lnI1s8//gm15cOFpNzYPGcAan/3I7Ejo1oyQCRuorXHiST4lzawlR8VYkQAIkoBGgQNhnIYg/wiN/3Z3oRq/GknwNTv9JLQb3VvMlunJrEg+8GsQHy1KQyAo2tQTcTgvOPd6DG85UU/NASohfdm8D6hvzKzo5ShCnxB+e4cfBvdTk0FBLhKORAAmQQOsEKBDyMFq6Lqlt+y/boF9S2GkDnryxFoMOVCMS/rY4ikfeCGPjNm4jtL5sC+/htFtwxjEu/Py7VUp2fBrDWdw2vQkfrkroCsg+XW24bpwfY4a7Cn9Q9iQBEiCBDkaAAkHHIP9YlsC9Lwexbpt+6FrPmgpMubIaAxV9JT43P4xpcyO61SY72Nrp8I9jrwBOOMyFiedWKqnOKeWbp78dxnPzIwhG80efdKuy4spT/fj2CCZD6vALhA9IAiTQIgEKBB088uN/7qIYHno9hI0783/VyznzSC2+XVF5aAB/ejuMp98KoznC8Ecjf3dlm3/UUKeWBVPFNr/kr5ACX1NfCWKTznqo8Vu1REgXjPIp2a0wMn9eSwIkQAJGCVAgtEAwnsxhxrsRPDtf/6s+4LHi4jEeXDTGpySyQWo5yT3/ND+M7bvokNCeBS4xKOed5MF3RnrRt5vxvBXyDP+3MoH7ZgWxanP+HSVJuDT+WI9WBVRFxs32zJvXkAAJkIBKAhQIrdDcsiuDB18LYt7SBGSLOV/rXm3F1af5Me5YddvKf/04ik83pDBznqRklmY845/KhdNRxzrmEAe+NtCJC0Z74bKrYbZkbRJTXw1Bfs3XJDPj4f3suOV7VcoESUfly+ciARIwDwEKhAJsvXxjCnc+14SVOl+PMsSBXSpw7ekBnHKkOse0pmgW8xbHsbkxrSVV2r2joOalV8C0O0GX3YLN57bixKEuDO1jx7CDHNqRglURJsl18NibYcxZFENKx3+02m/Fb3+wOxU3GwmQAAmUCwEKhAItuXhNErc/04TNDfnfEhL6OLi3XfNeP+ZgZ4Gjtt5NXoGhWBYrNqUQjua0hEqxVA7xZFbLAKntLVj2yIY9L8Uv/98C+We3pvj37+35Dfnlq7+n8yxfjr3PH+dN/LNP33+/o/f8x1cSCWp9//stLvNra5NIhYO629CtqgLyNa+qRRM5vLwgiifniE9I/uMeu82CKVdUY8RgdTZX9fwchwRIgASMEKBAaAO9f65I4NY/NqFJ92UBnLqnPHTP2uIU5ZH3Zyabyxtit+/r9ktx8OUU//P/X301t/ix3Y4v8X2FwVfu3wbe+7OrCJX3P4tr5Zu3Nen7gky+rBrfOFzdrtH+nDPvTQIkQAJ7E6BAaMN6kEyHL7wXwdRXg7pZD8VZ7ZrT/ThnpAfyZcvWOQmIv8HEaU3Y3qyfl+LyU3y4aqwfEs3CRgIkQALlRoACoY0WFUfF6x/ZhY9W53dYk+FEJNxxURUT5bSRbUfp/sW2NG56vBHrt+vnwBh0oB0P/7AGfo/CM42OAoDPQQIkQAJMtdy+NSApmE/8aT3i+hoBdhtw/9U1Sv0R2ve0vKotBILRLO6e0YS3Fsd1HUJlZ+jPv+gCSZTFRgIkQALlSoA7CO20rORI+Oat2xCN63vV9e5SoZX67d/TztiDdnIu5WUi/GYvimmplPWaywGt5LeK5EulnBvvRQIkQAJtJUCB0FZie/qLLFhbn8YVUxsgX516bdyxbvz4rACqvNyKbifqkl0m4awX/26nbultSYB09/erMGKwS2m0RMkmyBuRAAmQQBsIUCC0Ada+XcUf4ZV/RrUkOrKjkL/lcOt5VRh/nIcvFQOsi33pqs0pXDB5B3K5/I6lcqxw4WgvLjzJiyofxV6x7cHxSYAE9j8BCgSDNtjZnMF9rwQxe1G8hVLNOfzuimqMHuY2eDdeXgwCa+rTuObBBjQE8+8ESdKl4wY5cf14Pwb2ZPnmYtiAY5IACXQ8AhQICmyydmsak//cjIWr9L0WJYHPpEsZM68At9IhJGLh938J4oMVCUgdjHxNIhZ+fGYARx/MTIlK4XMwEiCBDk2AAkGReT5bn8KUl5uxeG1Kd0Sf24L/OTuAM47xsNqfIu5GhvlkTRIv/D2C+UsTSKbzq4P+PWz40bgATjiMmRKNsOa1JEACnY8ABYIim2WzwILlCfzh1SA+r9ePnw94LPjByT4cP8SFfj3UVBpUNAXTDCNiYN6SuFY1c/nGNFKZ/OKgR00FrviWTyvCpTKFs2lAc6IkQAKdmgAFgkLzReI57Yv0mXkRNIX1IxvcDguO6O/AkQMcGD3MxQqACm3Q0lCxZA4fLE9opZtFzOnV1ZAxJNmVRKBMGOtHJSNQSmQh3oYESKAjEaBAUGyNrY1SHjqEuZ/oV//78pZ+t0WLp68LWNGrzoZDD7Shb1c75PetdJQ3ZBmppSA7A1t3ZbBiUxqfb0lp4ajrtqaxYWemBYdSaLsFIuBu+W4l+nTjLo8hQ/BiEiCBTkuAAqEIptu4M43JL7bs+Lb3bSWwzuOyoNpn1UoXOyRBX95yiUV42DIeMpvNQSoySnEtEQdSS6O1JtilMuSkS6oxoCfFQWu8+OckQALlS4ACoUi2rd+VwV3PN2Ph6kTeyotFui2HNUBAhFqfrhWYclUN+nSlODCAkpeSAAmUAQEKhCIasTGc1ZwW3/w4hqR+cEMRn4BDt4XAyMFO3H5+Feoqeb7TFm7sSwIkUJ4EKBCKbNd0JofV9WlcPmUnEvrBDUV+Cg7fGoFHr6/B8L4O2G0s0d0aK/45CZCAOQhQIJTIzuI0d/fMJrz5URypdI7HDiXirncbcQK1V1gwaqgTE8+tZKTCfrYHb08CJNDxCFAglNgm4VgOT84JYc6iuJacR6pBJtI53QJBJX68sr2dOB+KIBBnUKfNghGDnLjsFB961rJkc9kanRMjARIwRIACwRC+9l8sOwrrt6fxygdRLF2X1LztpeVYGLr9UPNcacFurlJs6ZAD7Bh3jBuD+zgg9RXYSIAESIAE9AlQIHSw1SHCgU0dAUaLqmPJkUiABMxFgALBXPbmbEmABEiABEigIAIUCAVhYicSIAESIAESMBcBCgRz2ZuzJQESIAESIIGCCFAgFISJnUiABEiABEjAXAQoEMxlb86WBEiABEiABAoiQIFQECZ2IgESIAESIAFzEaBAMJe9OVsSIAESIAESKIgABUJBmNiJBEiABEiABMxFgALBXPbmbEmABEiABEigIAIUCAVhYicSIAESIAESMBcBCgRz2ZuzJQESIAESIIGCCFAgFISJnUiABEiABEjAXAQoEMxlb86WBEiABEiABAoiQIFQECZ2IgESIAESIAFzEaBAMJe9OVsSIAESIAESKIgABUJBmNiJBEiABEiABMxFgALBXPbmbEmABEiABEigIAIUCAVhYicSIAESIAESMBcBCgRz2ZuzJQESIAESIIGCCFAgFISJnUiABEiABEjAXAQoEMxlb86WBEiABEiABAoiQIFQECZ2IgESIAESIAFzEaBAMJe9OVsSIAESIAESKIgABUJBmNiJBEiABEiABMxFgALBXPbmbEmABEiABEigIAIUCAVhYicSIAESIAESMBcBCgRz2ZuzJQESIAESIIGCCFAgFISJnUiABEiABEjAXAQoEMxlb86WBEiABEiABAoiQIFQECZ2IgESIAESIAFzEaBAMJe9OVsSIAESIAESKIgABUJBmNiJBEiABEiABMxFgALBXPbmbEmABEiABEigIAIUCAVhYicSIAESIAESMBcBCgRz2ZuzJQESIAESIIGCCFAgFISJnUiABEiABEjAXAT+H/xCCJ49Ii15AAAAAElFTkSuQmCC;" vertex="1" parent="1">
                    <mxGeometry x="110" y="417" width="111.81" height="63" as="geometry"/>
                </mxCell>
                <mxCell id="29" value="" style="rounded=0;whiteSpace=wrap;html=1;strokeColor=default;fillColor=none;" vertex="1" parent="1">
                    <mxGeometry x="470" y="500" width="200" height="140" as="geometry"/>
                </mxCell>
                <mxCell id="30" value="Sealed Secrets" style="shape=image;verticalLabelPosition=bottom;labelBackgroundColor=default;verticalAlign=top;aspect=fixed;imageAspect=0;image=data:image/png,iVBORw0KGgoAAAANSUhEUgAAAMgAAADICAYAAACtWK6eAAAABGdBTUEAALGPC/xhBQAAACBjSFJNAAB6JgAAgIQAAPoAAACA6AAAdTAAAOpgAAA6mAAAF3CculE8AAAABmJLR0QA/wD/AP+gvaeTAAAwhElEQVR42u2dd1TTVxvHH/Zw4UBZjrrFxVZmhttqa624tQoynGzIUNFqtdaBuMXZurVWu2xtHSgje+DWDhWRpba+1jqq8Lx/hGASkpAwQgL3e873HFRqPb/f/fCse28AiIiIiIiIiIiIiBqjupiDY2hzCIpvC9RF7WFITAcIiW0H/nFtwH60LXk+RE1LVk6W0DmwvVn/8VSLYaxV1iNSj9iMWSG2G/tZqd3Yz57Yf7Dqif2Hq540+3BVif3YVRfs31+52yqQPc+8B3UAdApoCQBm5CESNU71iXU2G7Yk3nLkMp716OWvbMesRLuxn6HdB5+h/Qer0P7DVdjsw9XYfNzn2Pyjz7HFR2uwxfgKf7T6f80+XH3CYuzyUfDeoObkYRI1ErUxg07+zubBcUlWI5dJrUd/+sLm/RVoM2YF2o5ZibZjV1YC0uzD1TKPW43NP6qAZPwabPnxF3KXtfh4zbPm41Z/azN01ofQhYBCZNoyh6GMCWbDl16zGrnsP+vRn6L16E/R5v0KOCoAsf9g1bsIMu5dBFEFpNWEtdhqwlp0CF2HrUK/eNl8/JqDMJrZkzxmItNSc28r6DKMZjZ08Wnz4Uv/shy5DK1HyeCQA1IJiRpANEUQRUAcJq5Dh9C1b1pNWHu32QefrrTsQe8ILd3MycMnMm51mtYRaIu3wLAlf1mOXIaWI5eh1ajlaDVqOVaJIGOVUyzVGkQTIK1C16LDxHXYeuJ6bD1pPTpMXP+m1cS1d+0/WDWbFPFExqn23u3NPObPNxuy+Kb5sKVvzYcvRW2AKEKiCkiVCDJeDSCh7wBpM3kDtpm0AVtP2vBvi5HL02x6D+kGLTtakJdCZBzqHd4T6Cye+bClaD58KVoMT0WLEalKgMhTLDkc6lIsjUW6IiAVcCgBMmkDtp2cJvOUNGw3ZUNJs/Fr5gM1lBTxRA0ox+FdIDBhKdBYf5gNXVJeBZAR9RNB1AHSZvIGbDulApCpG7HtlLSXbaZsyLINjgq17EZvCeBAUi8iAys45RjQWOUwZDGaDVuC5sOrB6QyglS0eRXnINW1eTUCMrkqIO2mbkTHaenYblr6S8cpaSds3l/uR+oTIsOKyrgIQxajRkC01SBj9IggtQCkwmXtpqbfazN1w1ob79A+AM6k20VkXIDUR5u39cR36ZU6QNpP31TpDjM2Y/sZm8odZ6TfaT1lwzzoGdyCvEAiwwIyTI8I8n7NI4hqm1ddDSKPIJWQzNiEHWZuxg4zNpc7zdj8ov309AvN+4/8yLJd12bkRRIZDpBhBgJEXYo1WTMgHWZslgEyczM6fbIFnWZuQeeZW950mLH5apsJ69lWHbo5kRdKVH+ADNUeQQza5pUDMj0dHaeny+CoAMRp5hYZIJ9sQedZW9Fl9jZ0nb0dXT/ZcrV16Log6OJrTV4sUd0CMlQFkBFVu1hqa5CxOtYg4zXXIFpTrApAFCOIJkBcZm9Dl9nb/uowY9MhG/+wHuTlEtV/kW4Ebd7K+kMFEOdPtqLLrG0yQMK2o2vYdnQL34Fu4TvQJWzrrbYzN0637uJP6hMiw3SxNAGiz3b32gAiL9IVAZFHEFVIOs7Zia5h2587z9r6bYsxX3xg3dO7JXnZRPUKiDG0eTUBUglH2I5KQDpG7MROERnoFrnjjWvY9n0wnuUMZNBIVF9t3noFZFL1gKiLIC6ztimlWYqAdIrIkDkyAztG7HztNmfn7XYzNq+w6jvMmbx4ojoHRO12dx2P3Orc5lUAxHFqusY2r/MnW5VrkNnbq6RYckA6R+6SOWoXdo7aVdYxIuOxyyebPyYvn6hmbd76mIOM17EGUTMHUe1iyecgSimWGkDkKZYiIF2idld419POkTvPtBm2YAS08SPb6olq2OYdWQ9t3tD6afMqdrHcwndUAaQSjujd+N7cPdh13l58b+6e110jM3bYj1zckSwGIv1TrBH1M0nXZbu7pkm6IiCa2rxu4TuqpFhKgETLAJG7c9RuaafwnWw7v7D3yKIgqn2bd0wt2ryhddfmlQOirs2rWKQrpljvRe+pAki3+ftknrtH7BC6wZ10u4xNLoOdjB2QKinWGMO2efWdg8hTLL0Amb8Pu87bd7tL9J61Dp5j+pKF2dBq620P/klhQE2IbjJt3lDDt3kVU6xKQOaqALJgH3ZfsB97LPwSeyz6Ersv2He3S3TGrBa9h9iThWpotXC2A8/IiUBl/ARU5jMISZpvam1exSLdoNvdFbpYqoDolWLNrRpBKgGRubz7gi+fdZu/96fWk9dOtGnf1Y4sXEOoT6QzUJK/ARr7jXxxGhUgBtjurncNoqHNq+8cRF6gK6ZY3ebtUwtIz0VfYa+YAxX+6k2Phfu+7jJrK9lSX08yAzc/V/COWwk01p9AZ5dVwmEsgOg4B1G33b3aIl2HSxvUbnefpsd2d33avGoA6b5gv8wL92OPRTJAesZUQBJ7AHvFHCjrFfvVH66ztq1s7TXaBaA5KeRrrWY97aHL2EAITMoAOuuVEhTGBkgTbfMqRo9KQFQjSOwB7B17EHvHHcQ+8YewV9yBV70W7N/ZduTqQCsnH5J61UhOsx0hKHkdUJn/gyHsco1wGBMgjWS7u9ucugWkd+xBJUD6xB/CPgmHy3vHH/pfj5gDX7SYsq4dWfA6ycEMOg5yAZ9Fc4HK4AOd/Z9WMIwdkCbW5lXsYqmmWL1jD2KfuEMyxx9C94TD2DfxCLonHH7dJ+4w13XBnuiWfh+5gAO5v0uzekWOABqDB3T2a53AMGVATGS7u1IEUVeky2cgC6oCopRixakHpG/iEeyXdBT7Jh557Z5wiOcatWc4AUFRtk7m8N6YQAhO2gVUVqleYBh7DdKE27y6RhA5IP2SjmL/5GPYN+lIafe5e1Pa+I3rCk6dyf1d4DdvPFBZj+U3FDYVQExxu7vWCKKtzatDBJED0j/lGPZLPvamX9KRe+3Dd49vmlC07WUNPT6gAyX5CNBY/wKdjTWGg7R5TaLNq1qkawQk+RgOSDku93P3xCNHnMYl0ex7BTaR21acfZyAytoHdObzWkFhTIA00e3u9QYI4zgOZJzAgcwT6MH6GgekHPtnYMqxvW19xjXiQaPr8PcgcNECoDKldQaGCbZ5VbtY8hTLbuxnaDf2sxLbsZ/92ezD1f/V1yTdWNq81UWQgYwTOJBxAj2YX6MH62v0ZJ/EAYzj0l6JBxe09pvbiLbVt/W0hsCk0UBjiGGIygS8zgCJN/ouVnXb3W3HrLxvMYw5GkYyutiNXfGV/UcySExpu7tORbo+gFREEDkgnuyT6MH+umwg44TEPeXoKHvPoSacdjVzaQYD59MgJGkvUFlP6wQEOlu9TQAQdSmWzfsr0Pr9FfesRi1PN/OY5C3/a80cOrW0pLPG23yw8vvmH33+vDHPQfQFxGvxN+i1+Bv0ZJ/83wDm0b29Fm6l2bsFm9r9Xd72EJyyAWisp9VOwRsTIHpud7ccvewsUGO8QNMBo24Bze1Gr5xi/+GqO6a23b1WgCjWIEz1gHgvOYVeS74p91p86ulA5vE0GJNqAtvqHTwsoe/k6UBlivUe9tUEDBMCpLIGGbX8pdXIZVlmQYkzoYufTheymfce18tu7PLPW4z/XAaKapu3Ec1BNALCqgqI99JT6LP0NHovPf3ac8k3wm5TloaC0Z5mdB7UCqiM01o3FdY1GHSWzMYEiJY2r9Wo1FdmNEYsOEfW6Ked+YBF3ZuNW31WnmaZzHZ3lTmIe/xhrXMQtSmWOkCWyADxST2NPku/LfdeeuqFF/vkZnCkGNNNK23MoGOAOwSnfF+jdEpXCOgsBJoGGwMgGm53txiRWmYxMrXUjMbMgK7BXmDrVNvpsLl1QPjkFhPW/NpqwtoXShFkciNp8+pQg6gC4pv6Lfou+xZ9Ur992z/l8Hob115GUsB3+tgTKMy7NR72NQZAhqqkWBVzEIsRqWXmw5Zkg198TwD3Ov6pFmrdYsynEa1CvyjVpQap0+3uc6tp8y7Svt1d5xSLob0GUQeI3/Lv0HfZd2/7xB+d2vBwuPl1AhrzXr3AoA0IGlPZRtbFMhu25KnZUNZmoC50M8Q/w2b0khEOoeuy2kza8Kqxt3nVArJUGRC/5d+hz7Jv/x645Osw6EJpqP1cjhYQmPhZldN96qAYwtYNDh2BMFM01TgAgaGLy82GLnkGNOYxeO8jOrToa8CuiqMZdB/i2IySGNVm0vr7baeklTX2Nm91gAxa/l257/JvCzpPWhzQMHz4ze8JVOZvmuHQBYzqIoZmKBTd8ICwEegsAYSkTIT2g5o3YEw3sx7x6aC2k9adbjd148vG3ubVCsin36Pfsm//6x69ezOAt5VhX0NLN0sISVoBdIWLE/RNo2h6pFBVwGAoGULiGgqQC0Bn/QMhjF3gMqiTUbQYHRzMoGtgK9vAyMntpqRlO05Nf9Vo27yKgCxTrEG+fds77mBJ64nr8s2HLr4L/ouoBq49/J2AynymFC3qCwyqZjDeARLbMIAEp6yGoKRAADdLo2y9D5/RrPXkL+LaT01/1NjbvJWApJ5+2zV6z12zoYufAo1VDnR2OYSknAFHXwNG9u4zhgCNVcPOkyIAKr+mvrM2IMyoDDSjpFS6wQCx62tj9MPb1h3NbfoM69Fq8udb20/f9KTDjM1lprDdXZ8axHvpqXLvJd+87rFgf0mLj9f8DkMWv1LqqtJYb6DbWF/DPXSvmITa1hXyegI01hba4DASQExLZm1D1/i1n5b+i9PMTa8bS5vXe8mpt32Tj5S0m7j+T6Cz/9VYE3vFJhjuUQfGpKrtPtF1S5sUUyd9o4U6E0D0mDJ2C2rd7MOVsxynp3OcP9n6usq5dJXt7qo1iLrb3ZUgUdjuXusIogEQT/Y36MU++bZv0pG/nT/Zkm81avlfQGeXaZ3FBaccMFSNaAZBCatlEYKtc12hqQOlFQwdADEngNQsO+wz1NFx+iaW88wt+abW5h3AOPa8a3RGgc3o5cW6H4lgXDZUN8scQhI26FVsU2uePql3sswhyWgekowQEkMAqVGzxd3S1j/Mx2naxu3Os7YWuczeVq4zIHMNBEhFBPFgfY0DGMdfdpu3p7DF+DWFMGTxy2pncIqmMW+BR1hbwwBCSUqrLlpUjRrVQaEHGJRkNKfI4JABsogAUiuFWrT6eD29w6wt51zCtr2uyRxEXoOoA0R+orA2bV73hINFbULXPgAa83812tZEYxVDwPzOBgSEqbYDpQwDs1bpkyIUchjU2dgBoVAo5lk5OSwulyfmcPkSboU5XK6Ew+VJOFy+RPH3eXy+hMcXSPgCoUQgEkuEYolEJJFKJNI8JYsleSJx3pUTU6dOrf0nzzZ3NrPoRWvrMHb5bNewbfkNOgepiCD9U46XuSccftp+RvoDyxGpfwGd/abGe/5ozL/Bd2F3gwOidwdKx1TKXB4lVKKFKQKSmppqyeHxj/IFQuQJBMjlCZDHV7BA/rUQeQKZ+UIRCkViFEmkKJZIUZJ3BaVXrsqcd0XBeX9HRkZ61OW/t/nIVA/XsK0nOs3Z+Va1i6VpDqIugiidSY97txdLpzlI8rG3HefsvGc+PPUhDGG9qfXRCRrrBQQnuBsIkMS0dxGDUSfpkzklBc1CkiutHoYkZQfLDP7Gn2Jt2brVl8Pjibk8/pu8vKuYn5+PRYVFWFRUhMVFxVhcWKz866JiLCoqxuKiEiwuKsGS4hIsLX2EJSWl+Oefd1GadwUlEmk+h8ud3K9fv7rfkNfdz6b10KiPO4bv4HeOyHihertifc1B+iYdfdslaldhy49WP4Chi19WdktrD8hr8FnUz2CA1EWxbV6RQukSJdSBUQlIkGnUILm5uf05HB6HxxOUX79xA0uKS/BR6SN8XPoYH5c+xkeljyp/rfj149LH+PjRY3zy+Anev3cf865cRbFE+kwkEofXf+vS3dp51pb4zhEZxZ2jMsrq61aTvklHyt3jDr90nrX1T6Cz/6nziz0MCkhgYlptCm1zNYW2PhFD2YkmEUHkLfLNW7YMz+Xyi8USKRYXF1cBotIlj7C0pBQflci+flT6CB8/eoy3b99BiTTvqVAkivT09DTIoSDLdm6WLQaO6dVh5pa0zpEZJZ2jdr+t8Ryk6uXV5X3iDr5wC9tWZDfms0Kgs1/Vy803BgXEPz6tKhjaATGX1xX6AFEFjMQqtjAtQCA8PKIzjye4IZZIsbhIPSD37t7Dy5dz8PLlbMzO4WBODgevXr2OpSWlMkAkeYVS6XXDf0imnatZM49Rbu2mbZjXZe5u0Xtz9/xX0zZvn/hDZT0W7n/SdtrGQutRy58ATceb/E0GkGpTJzkUKbVKn7SBITcMMh1A5syJ7MwTyAApKSpRm1bduHETd+3ehxm79+He/Qdw/1eH8PzFS1hSLANEKs172CCAKGp4YjO38J3ru0bvedZ13l692ry9Yr965RK2Nd9i+NIivWYZjQEQc0XrGy2qAcNC1UEyg+8C0wEkUgaISCHFUvW9u/cxJ4eDWdk5mJPDwVwOD69fu6ECiLTBP2bZ2tHDvoVncqBr+I49XeftfVldm7d37IE3bmE7HjYbt7rIbOji53V6JZRxARKXphaIWhbbWmFQAMIiKEHJ4DPfxAAR3hBJJHoX6Y9KHxkVIAodL4u20zb6do3ec6X7gv1q27zd5u/9u/m4VdeBznpRq5v8TQeQ6gd4uhXa74CoAogaGNTZpACJiOzM5QtuiBUA0eSCBw/x5s1beOvmHbx7915lDWJ0gFTIpv9It44RGZu6L9j3rMeiL7HHoi/Lu87b87TN5PUFViNSH8MQ9lvZSdPF2OgB0RwpknSuKyw0RQwdoJA5Hi2C4k0KkLCwOZ05PBkgxcXFWFpaqraD9ajkEV67dh0PHz2Ox46fxEtZOVhcVGzUgMjVLmxbr27z9vLcwnY+tBye+meDANGggAyOSatNCmWhFgr9wbAIlNm0AAnvzOHx1QJSWlKCf+TfRu6t88i9dR5/u3cL7967h/fu3cMHDwqwpLjEJAABADD3jnwf6Ox/6mTIZ3qALErTr9BO0hApVK0fGKYJSFhnLo93QySuCsjv+bfwQO4XmHYxBjdejMFvRXuwqKhINkUvLn2XYuUZPyDQefpoowCj4QBJ0qvgrlpb1BwIUweEw1UPCO/2Bdx0MR43/pyImw+vwYyjm/H7H8/gTz//igKBCIsKi/AWAcTEANGSRunSgVJrLTBYBsajZWCckk0KkDlzOnF5vOtiiUQ2KCx5V3twbv2KmzLjMP0MA7fu2onbM3ZXzkLOnbsoA+TWbZTm5T3kE0CMHBBdB3l1BIbMymBYBshsioCIxDJASkveRZA7+dfxMHcDpp9LwPTv2Xg68xBK867g1SvX8Lc7v2NxYTEBxHQA0WVekVhjKCyVrB4MUwWEw+NdkxfpSnOQkkdY8PA+iu5koei3bCx4mK/U3SopLsGbN2+hVHqlQCy+5k4AMWJAap5CxWutLdRCEaDOsZUGn7mmsxerAhDVGqS0pFRhc2IpPiopxbt/3kMeT4B8vhBv3LiJxYXFeOPGTZRI8wggJgFIUO1TKH0ihSIUirYyIUDmzJnTiScHpKIGKSkpxut3xXj73tXKlOtx6WO8c/s3PPPTWfzp51+QLxBiUWER3rh+A8USaYFYLCaAGC8gC9Nkiz6x1nVF9ZFCMxiWAbFo6W9aESRMMYJU1CC/59/EPTnL8TB3PeY/vFsJSGlxqcLBKZmvX7+BIrGEAGIagGhJo1SihLYulM7Rwl+9rUwQELH4XQ1y5/413JnFxv2cVXi/4E8sKS7BggcPseBBQaULHxa+A0QkLuASQEwQEF1bs/pGikoYYqrYyj/GtAAJC+vE4VQAUpFiFRUXouDOJZT+zsXi4mK8fesOHjl6Ag8ePooHDx/DQ0eOYWbmZSx8WIjXrl9HIQHEBADRqR0brx8UipEhQD0UVooeXGETAyRXARDFNq/cd/+4i7/+eh7P/nIOz/5yDn/55TwKRWIsLCzCa9evo0AkKuByCSBGC4iZFkDURosapVBawKgCSKSJAcK5prgXS3W7u7yjpdjZKi0pxeLiYrx2/QYKhAQQ4wZk0II0S4VoYVEn6VNsJQiaI8Yi9faKNKkuVi6ff1WkIYKUlpTirXtXMOfmT8i59Sv+kX8bS4tl31NcVIzXrl1HPl9UwOUKCCDGDog+s4rq6gqr6qwJDhMDJCwsrBOXz7+qWKTLo0dpSSneyb+Oe3KWYfqlGEzPjMGMnFT8Lf+GDJDiYrx2XQ4IiSDGDUiAfrMKvVInXaAYvAitBi9Eq0ELTQqQn8+eHZfD4T6RSvOqbFZ8UHgfTwi2YHpmTKU3ZsbguatfVwJy48ZN5PMFz/kCAWvgwIGWBBBjBkRXMBQAsapttJCDIYdj0EK08ppjEoCcPXu2GYfH/47LF5TdufNblfTqbsFvuDsnVQmQ9MwY/E6ypzLCFDwoQLFEigKh6NnhI0cCCCBGC4gONUWAjlDoGinU2HrQQrTyMH5ABgwYYJ2Tw13A4fL+lkrz8OHDh1WP2BY9wFOiDEzPjFWKIBevnVb6vjt3fkORWIICofD47NmzmxFAjA6Q+Wm6pFK1g0IhUgxWD4a1CQFy5uefPXJzOfl8gbA8/34+Piqpeh9WaUkp/pl/Gw9wvsCNFXAc4q7Huw9+U/rewoeFKM27gkKR6G+eUPgRAcRYAfFX34WqORi6AWE9aIGSjR2QadOm2XA4nG0cLq/sxo2bamcf8lZvaWkp/vHgNnJu/4rCO5fwwcN7SmdG5CDdu3cfJdK8t0Kx+MaWLTv7EECMHpDq5hV1FzFMDZDs7GxaLpdXKhSKseBBgdabTCohUCje1V0LVFpSinfu/IbSvCtlfIFoU2hoqAUBxFgA8ZuXphGIwYtqVmgrgbCgqv3UeT5a+81HK49wowVk4qRJrrlcLofD45Vdv3UV7xf8iQ8e3sP8h/fwgdyFKn6oxoX3K/+8oOg+FhTdx7v5v6PkihTFEulvWVlZ/gQQowFkblqtO1AKgFhXEyGqByTMaAHhcLjLeHxB+Znck/gV53M8wPkCv+LKfIBTYa4aq/zZQd5aPCxYj0fFaXhcmo4n8jbhybwt+KPkEEqk0rdSqfR8VFSUIwHEmADROW2qGjGsqwNDCxCqNlZATp+70J/D5d2+xMnE3ZdWKHWn1PpSrMyq33cpFjdnxePWnETcwU3BDD4TdwlYuEe0GPdJUvGC5EeU5OW94vJ4sT179jQjgBgDIPqCMVhLTeG3oBrP12pjBGT69OnNOFz+yRwu57/jl3djemacVjg2ZsbIpueXYnBjhWV/FqsWkN1CNu4RLca9kiV4XLIZhVJhuVgi5UVHR7ckgDQ4INFputQW1jVOn7QDYe07D20UbGyAuLu7m/3ww4/huVzuv2dzvivflJkoA0AfQORwqACynZOMO7gpuJPHeBdFRMvwrPhrFEnF/546dToUDPR54ASQmgIyqGkD8uOPPzrlcjg5uTxu+b5La7SnVUqOfZdmXYqtBEYVEDkk8lRrt5CN+4SfYpb4PIokkkuXL192JIA0OCC6tGMX1g4GX7mVgbAxYkAGDhxok53NWZ6Tm/vs2+wjuCkzQSc45IPB9EyVKKIAyabLcbglOwG3ZCcoQSIH5aQwAwUi4XOhUMgaMmSIDQGkIQGpAsaCGhfZipFB1VWA8JlbxcYCiLt7qFluLnceh8t9dSbnm/JNmfGVC786pysCouHX8giz6XJcZUTZmpOI23KTcAc3BXfx2HhB8DOKxOKX23dkTCWANCAgGiNFDYttG7/qI4WN71yjBuSXX35xyeFwc7M52bjv0mqNdUfNAVHudslB2ZKdgNtyk3A7JxmP8jYjT8hHvkDEv3jxogMBpAEAMfeLTqseCP2ihU2ViDH3nX202xgA8fLyssvJ5XyWy+U+P511EDdXFObaYNDlz9LV/L46WOSg7Mhl4U+8k8gTCF4JhaLPPD097QggBgbEolpAqqsrqosUpgfI+dzc0Rwe/99znJ9xWyZLJwjSNSx85e+N1QiVutRrS3YC7s5dhlmCSygUiZ+eOn2aTgAxNCC+kWn6wKCxntChvlB2tLK9ZW5oQIZOmWKdw+GezOHmlh+6vEnvKKE1glR2s2K1/zcVhb0ckq9zdyFfIHjLFwiPzZ4d2YIAYkhAfCLS6jZazNMpUqiCYVvhhgYkLDy8P4fH/9/ZnB9wayaj+nmHfHFf0pw+qQPkXUdL1bHvhosVkWR7Ngsv8n8pFwhET3k8QfioUaMsCCCGAsQjIq3mnShdUyf10ULRtt5RaOsd1aCATJs2zYbD5e7N5Fwo331ppc5dq8oWrs41iCIEVQFR/b1Nl+Pwy9zPMZufVcYXCq+nb948kADSgIDYyK1rXaEjILY+7yJFVcsB+aTBAMnicMZyuLynJ7L3YlrmoloBomkuUgWcKqDEqoVmS3YCfsc9hAKB8A2fz//CoBP2Jg3IwIi0aucVikDoGinURgllGKrYq+EAWbo09b1cDkeaxblcvjNzKW5UACRdj9nHRm0pVg3qFnnE2XQ5DvfkfIpZ/EwUCEUPsrKz6f369TMngBgAEJ0ihR4plG0VILRDoegGAsQsJ4eznMvjvfku+5jGBavrNhN9Boi6TeRlgGzNTsRj3K3IFXDL+AJRZnhEhCsBpEEA0QMKBQiUI0V1QESqtaEB6dmzp9m57GzfXC73TibnImZkLtO6wNPrCBR9Le9o7eSw8Bf+aRSKRC8uZGbOdXd3NyOAGAwQ/aKFLjWFpkhhLICEh4e3y8nhnM7h5r45krVda7qkbdinzzaUan1J/cRdvm/rMC8N+WJeuVAsuZaTk9ONAFKvgMxJ0w5FtMYuVLXpkw4RoyEBcXd3N8vOzgnP4XD++SnnVMXEfJHOaVJNAKlxFFEAJIPHwh+Eh1EgErwRi8V7pk+f3pIAUp+A6NGetdUZDMWFXz0gdhU2JCDZ2dkuuRxObjY3u3zf5TUa90/VJjVK1xB9apJiybfI7+QxcL9wBV4WnUORWPK/qKjo4QQQgwGivhOlX8EdqbPtVGwoQKZOndo8l8dbl8vlvjyddQh12a2rrXVbk+6W1rMk1QCyW8jGU6LdKJKIy8WSvEvh4eEOBJB6A6Q6IHSoK7yjagxFQwDyww8/DMnh8R+fyz2LWzOZNUqRappi6ZtaqR7TlZ8+3CtaihckP6JYKn0jEomWhYaGWhNA6gMQpXlFlI4tWf2iRHVgGBKQSZMm2XG43BM5nNyyw1lba1VL1LXVASLvYMmjhxyQPaLFeFiyDrmSXBRL8wrS09P9CCD1AIh+hXZUrSKEMQDy66+/uuRwc5+fzN6Pmy4laO8e6bhbV9+ThtVBqXryUBGOyksexEtwn2QpfiPZiSKpuFwskWR++eWXTgSQOgekOji0R4a6gsNQgJw/n+v6a87Zl9suMVXOjcdW3VCoAYCagFLt9yj8GxRPGm7nJCudWZfDIQdknyQVz0u+R5FE8lwsFkdPmzbNggBSZ4DMTtN3VqEOELs6smEAOe96Mnv/y81ZCbjpclwVK8Gi4f6r2kQSpUiltAfrXb2hevPJLgFLbfTYJ1mKeyVL8ZhkI/Kl/LciSd6ZyMjItgSQOgNkVpq+tYVdPdoQgHx//rjrVzlfvNyWm1R5FlzR8ssUtmQnKECj8FNe2zU/Oh6vlUcIxa/l/0/5kVv5lUBKd2cpRQ45IEtwn2QZZksvoFgsKYyIiBpIAKkrQAbMSmtoKAwNyO7zqa67che/3MFNQbnlV/DIvS03qdLyhStf0O+iyzsoqt6DVTVlUgVhS3aC0mUNcjDk9YYcDs2p1TtA9kqW4nnpdyiWSF9ERUePJIDUMyB2DWRDALI9N841g898uUvAqrxqR5t38hiVECkCoxhhFAFQhEB18StCKbciDIpAyKHQBIYqJL9IT6I070pZZFT0BAJIPQJi18gB2Z+7xvVL0YqX8sWnaPnC3C1kV+b9cpBUQZFbMT1T/H1VKOQgKMKgaMU6Qx0g2uDYK1mC56Xfo1gi/Tc6eu4IAkgdAWI5YFaaXQNDYfAiPfe86zfiXS/lC0vTwquyECt+istBUgVIDpFqNFCNCKpfq0YJbTBoAuQryUrkSLPLxVLp3ejo6N4EEAJIjSWQClyzxRdeHpNsxH2SVJ0hUVzAmqKOpgWv76LXFYy9kiV4QPI5npN8hyKp5KVYnJc2c+asZgQQAkitNilK8vL+4Um55T9KDuFByRrcJ1mmdyTR1XUNhnz28aVkJZ6SZGCW5CJK866USaV5WXw+vyMZFBJAaqUZMyJtBRLpMrE07w+RRPyaJ+XgZemveEH6HZ6TntbNEpl/1eBzktO6/116+rz0W8yU/oy5kiwUSoRlEqn0kViad3j79h2eZKsJAaRONGXKFCupVOopluatk0rzbglF4r+leVdeS6R5ZXlXrqIxWpp3BaXSvHKJNO8/kVjyTCyR5kulV48KRaIxx48fr79bFwkgTQ8QuWbOnGkXGRnpfPLUKa9z584PO3fu/NgzP3HHGaczx50589OHFzMzR/545kzAqlWruoSFhbXw9PSs38sbCCAND4atZwTaeMx5CcFJR6Hj9E5AZCTytwO/+CUEkIYDo8zaY85zC78FDyEosRTorDKgMO5AQOIKcPHtThZoA8neyRr6TQ4DCiMbaOz/CCCGB6Pc2jPijZV31EMITrwDdPabKg+CyrwFfvFjoK13M7JiDSYzcJ3ZFgKSvgA6q8yowGgqgNh4Rfxn4RVdbOYfWwwUxlOgs8vVPgg6G4HKfAbBKV9DYPT70Llfc7J+6xEMl8FO4BMbB1SmCOisV0YJR2MFxNYzAq085/xr4TO3FIISCoDGeqnnQ0GgMHLAY0EkOA/rSNZzHam5kzV0DhgAQYlrgcosADq7zGjBaMyAWHlHPoSA+LtAZbwAGqu8xg+HznoLVEY2BMbTALqYkxVeSwUmJgON9dgkwGhsgNh6RZZZekX+ZTFoYQEEJ/1VZy+Bxi4DKusxBCbtgJBpg8He2YasdD3k6N0K+s2eCiHMS0Bn/WsyYDQmQGw85ryx9J0rhZCUJzCEVQZ0dn08qDKgsZ5CcOJnAGBBVr4uM41wD6Ays4FqgmCYOiC2nhFo4xnxr4XP3BKzwPh8oLHe1gsYVdOuN0BlCqFf+CfQwsWWUKCmAHeju0NAwgqgMfMN8k4aDSD9ZtYZINYeEf+YB8b9AVTW6wZ5CXT2fxCckgFu4W0IExWycbeDoPiZQGMWmDQUDQSImXW/mWtqV2dElFl5Rvxj7jOvCIISihu82KOz3wKVcQV84xeB2+BOYNW6aRbydv1t4L33B0Nw8veNBox3gLwAn/g+BgHEouf05bWpM6y9Iu9DYHw+UJnGNm39D6hMKQTGftjk6hNX33ZASVkKNFahyadT6n8I/g3UOMPssrDoMTm5BrXGa0vvqEfm/ouKgMb4S+OgzzhAKYWg5H3Q82M6OHk07vqkvY8zDFo4CyiMTKPbHlK3NWcRBMUaZhZm3nXsRL3qjIHh/5n7LbgF1OR/TKZ3TmOVA431CGgp28BlsGOjhGPQIm+gpFwAKvt1o4wayu/zJnSa29owD7btgN62nhHVzTPKbb0i/rHwnV8EgQlFQGO+MsmXQGe/AQpLDAHx88HJy83koWjRzhI6BnrD4PiNQGOWmtSwrzamMM4DuFsaaKtBn1Z2nuFCrVNwr8iHEJRUAFTWq1pNwY0DEgQq6w1QGBIIjAs2YTwsIDhpKVCZfwGN9bZJgCF3UPIeMOCn/JqZ9ZseYeMx55XiPMPWM+KtpWfUE4vBCwuBynjSOEM1+zmEpOyATtMGQXNX05jGd/BzgP5hk4GScgnojbjO0GbvRXMM+9AHjHezGRh+u7LO8JzzwtJ3fg5QU56ZfMTQLaI8g5DEVdA6tJVRw+EXPQAozAtAZ79qkmDI6o+X4Obfw8BPvo2FZb/ZO6y8Iv6x8J1XDIEJhWrPZzRuUN4AhcGB/gvnQPP+LY0GiuY9raDrOA8ISFwNVFZ+kwVD1r16DRTGerDr2wDR3onaB0KS/gQa+22j74JUN2gMSeaCT0wkdPJ3ajAwHJytoG/oSAhJPg001tMmDUZlcZ5yCdp/0q6B3oizOYSkfNXoUypdTWW9BirzZ/BLpIN9F2uDvgrH0OYQmBQDVOZj8i7kZr+GoLhPGjac9x3nD1TmXRjCJi9EHk1ozBLwj98JHf09oKVT/bYWnTzsoW9oKFAZmUBj/UPeg8LWEkrSVmjp1tCpbxdzoMaNBBqzlLwYJVDKgMZ6DEHJSwFG1U/+2/H9/hCc8h1QGS/IM1eN5oxTQA01muPWZhAcFQVU5rMmXYuo63bRWK+ByrwKfSZOB0ff5gAOZrV+1k6DuoFf8mqgMQuBzi4jz7zKnQS/Q8cRvcGo5OBhCdT46UAlkUTjtnoq8xx4zwsEgJrtFnYb2BKC4sOAwrhN6j6NP5AeQJ8IqrF23c3AfcJYoDLEQGO/Ij/Z1KZdDyEwaRN0HTEQHDx0q09aeLaCPpHvQwjjR6CzXpA6o8pzLQc66zkEJR8FtwB3sHUy8uMKfSKdgZK0VVY0kheovv3I/AMoyfHg7OeotUvoNa8PhCTvBaqeN7o0nWK8HKjMOxCYHA1Ofi1MaFOcZ0sImDsWQpJ/ABrrX/JTT006QGe/BArjEvSPmgptPd716q0cLcDVrxv4JS4HKvNukxvA6h6NH0BQ8iZ4b6wHgKOJnt9xC2oNwSkRQGXcIHmzxp+CryAk5RvoF9UZwN0a/BPDgcK8CdQmtqFQn3kThfkjDI4PgcZxsM3ZHDoO7Ql+CSuBxroPQ9gElCrRhPUGKIwrEJJyEWisp0Z9oKzhntNroDCEMGDCNHDxaQ3Q3AwanXrN7gcU5skmu6uUuKZR4xkEJqVAl1lN4AaaVv1toc+Ej4DCyCH1CbGWGu0tUJmPITAhAzr5u4NNe0toWvK3g+CkGKCx/iL1CXGVCzQoKecgKJEKbu5NDQzFAaOTJfQeOxJCGN8DjfU3qU+aeuRgvYGQFD54xs6BDl4dgEiuUTYQkDgDqMwrpK3ZhA82URjHwW2wC+FBnawcLKBTQBfwjV0MNNZvQGcRUJrEFJz9Aigp56DfnAnQboADAaH6I3Fm4DKoLXgvnAohzPNAY70ii6nRndVAoLOeQlDidvCYHwDNe9uTdV8jdbcBSgITaMynZG9XI9oeQmGIYdDCwaY7ATeq1KuDBXQJGACUuDSgsf4iQzSTbtvmgXdMFLT1ciYLuz5EXdQPqIxLTeI2wMYUMWisJxCSvBNcfFuSRVzfau/nBP4xs4HKuAx01muyCI36eqRHEJy8H/qNp0NbT2uyeA0pp0FtIChpBdBYL0k0McoLLCQwKP4jMOCNhkSqsve0hoDo8RCc8j1pCxvLXWFMKQTGxkLnwZ0BHMmHphqF3Aa2gKCE2UBl/kEWagN+ilMwYwt0m9GeLEijlKMFdBs3AAKSPgUa80+yaA143p7OzAHvebOgRfdmZB2agjpO7wd0Vi7QSBFfv5cksP+FoMRlAO6kADc5dfBpBn2jJ0EI4zIBpY63h9CY/0BA4k7oFOAL9i4EDpNXQGICUJilTe5zMer+Wp3/gMLggdcib7KoGpOaO1lBJ/+BEJK8FqjMh03mk5XqrgB/CxRGLvjEREJ7b1eyoBqtupiDR6wHhDB+bLDPZje9a3WKISh5HbhMJNvQm4xcfZzAK2oaUFLOk71dGqfgJRCSvAv6TKCArbsNWTRNcn4yuDWEJB0CGovcBKk47Ath3AFK/EiyQIgAWri3gj6RYyA4+XSj/qxw3baIFILPvLnQwdcRWpIpOJGirBwsoGOQBwQlZgCNWQI0VhMo5Cs6U1SGFPwSk6FlD3IOnKg6dbcA71gvoDJzgMZsvB8vR2OVA435DIKTt4PLICfy3on0U0u3dhDIWACUlNxGVaPI5hmPgJpyDPqGjiCn+ohq2fHybweByZ8CjVnSCFKqcqAyrkBA7BgAbyvyconqSI4W0HtCMAQl7QEqq8Dk7u+isV4DjSmFwDgGuPp3apz32hIZgaiWMDiBBhQGB+jstyYCxysIStwEvvM6AnQhnSmiepaDgxl08nMEn0ULgcoQGOVFd3Q2Ao35DCjJx8E9ciQ0cyXX6hA1gDxmOUBQ8lKj29tFY94H/0VDwL4X2WlL1MCybGMB/SbNBiojC2is5w3W7aKxyoDCuAHB8SuhVUeyoZDIyNRheDMIZqQAnfHE8EU8qwyoDA64R79HXgSR8cqqrQV0nOoNwUlbgcYqqNfzJ7LL2F4DhcEH//gE6ODlRl4AkYkU8h6W4BPvCRTGL/WYUj2BoOR10DeKpFNEJqp23o4QtDBCtq2e9U+tP02LzkagMh8AJfkA9A0dovNnrRMRGbVc33eAoIQpQGVcqflOW+ZLCEk5CX4x/mQKTtQYZQZOvi7Qa+4kCE7aDlQmD2isAo0X3tFYz4HO+h1CUs7CoPgV0O1DCrT2IdfqEDUVjbIB3xg3CEocBIEJc4Cash5oKduAmsyCgMTp4LmwH3iGOoKDB4kWRERExqX/A4hZa/FHVvsIAAAAJXRFWHRkYXRlOmNyZWF0ZQAyMDIxLTAyLTAzVDA0OjQ3OjAxKzAwOjAwcgO56AAAACV0RVh0ZGF0ZTptb2RpZnkAMjAyMS0wMi0wM1QwNDo0NzowMSswMDowMANeAVQAAAAASUVORK5CYII=;" vertex="1" parent="1">
                    <mxGeometry x="490" y="510" width="40" height="40" as="geometry"/>
                </mxCell>
                <mxCell id="31" value="ns:sealed-secrets" style="sketch=0;html=1;dashed=0;whitespace=wrap;fillColor=#2875E2;strokeColor=#ffffff;points=[[0.005,0.63,0],[0.1,0.2,0],[0.9,0.2,0],[0.5,0,0],[0.995,0.63,0],[0.72,0.99,0],[0.5,1,0],[0.28,0.99,0]];verticalLabelPosition=bottom;align=center;verticalAlign=top;shape=mxgraph.kubernetes.icon;prIcon=ns" vertex="1" parent="1">
                    <mxGeometry x="650" y="480" width="41.67" height="40" as="geometry"/>
                </mxCell>
                <mxCell id="33" value="" style="dashed=0;outlineConnect=0;html=1;align=center;labelPosition=center;verticalLabelPosition=bottom;verticalAlign=top;shape=mxgraph.weblogos.github" vertex="1" parent="1">
                    <mxGeometry x="730" y="580" width="55" height="55" as="geometry"/>
                </mxCell>
                <mxCell id="34" value="" style="rounded=0;whiteSpace=wrap;html=1;strokeColor=default;fillColor=none;" vertex="1" parent="1">
                    <mxGeometry x="180" y="500" width="250" height="140" as="geometry"/>
                </mxCell>
                <mxCell id="35" value="ns:sample-app" style="sketch=0;html=1;dashed=0;whitespace=wrap;fillColor=#2875E2;strokeColor=#ffffff;points=[[0.005,0.63,0],[0.1,0.2,0],[0.9,0.2,0],[0.5,0,0],[0.995,0.63,0],[0.72,0.99,0],[0.5,1,0],[0.28,0.99,0]];verticalLabelPosition=bottom;align=center;verticalAlign=top;shape=mxgraph.kubernetes.icon;prIcon=ns" vertex="1" parent="1">
                    <mxGeometry x="400.00000000000006" y="480" width="44.79" height="43" as="geometry"/>
                </mxCell>
                <mxCell id="40" style="edgeStyle=none;html=1;entryX=0.995;entryY=0.63;entryDx=0;entryDy=0;entryPerimeter=0;" edge="1" parent="1" source="38" target="39">
                    <mxGeometry relative="1" as="geometry"/>
                </mxCell>
                <mxCell id="44" value="inject" style="edgeLabel;html=1;align=center;verticalAlign=middle;resizable=0;points=[];" vertex="1" connectable="0" parent="40">
                    <mxGeometry x="-0.1473" y="-1" relative="1" as="geometry">
                        <mxPoint as="offset"/>
                    </mxGeometry>
                </mxCell>
                <mxCell id="38" value="secrets" style="sketch=0;html=1;dashed=0;whitespace=wrap;fillColor=#2875E2;strokeColor=#ffffff;points=[[0.005,0.63,0],[0.1,0.2,0],[0.9,0.2,0],[0.5,0,0],[0.995,0.63,0],[0.72,0.99,0],[0.5,1,0],[0.28,0.99,0]];verticalLabelPosition=bottom;align=center;verticalAlign=top;shape=mxgraph.kubernetes.icon;prIcon=secret" vertex="1" parent="1">
                    <mxGeometry x="339.5" y="560" width="50" height="48" as="geometry"/>
                </mxCell>
                <mxCell id="39" value="Deployment" style="sketch=0;html=1;dashed=0;whitespace=wrap;fillColor=#2875E2;strokeColor=#ffffff;points=[[0.005,0.63,0],[0.1,0.2,0],[0.9,0.2,0],[0.5,0,0],[0.995,0.63,0],[0.72,0.99,0],[0.5,1,0],[0.28,0.99,0]];verticalLabelPosition=bottom;align=center;verticalAlign=top;shape=mxgraph.kubernetes.icon;prIcon=deploy" vertex="1" parent="1">
                    <mxGeometry x="220.5" y="560" width="45.83" height="44" as="geometry"/>
                </mxCell>
                <mxCell id="42" style="edgeStyle=none;html=1;entryX=0.995;entryY=0.63;entryDx=0;entryDy=0;entryPerimeter=0;" edge="1" parent="1" source="41" target="38">
                    <mxGeometry relative="1" as="geometry"/>
                </mxCell>
                <mxCell id="43" value="復号化" style="edgeLabel;html=1;align=center;verticalAlign=middle;resizable=0;points=[];" vertex="1" connectable="0" parent="42">
                    <mxGeometry x="0.454" y="3" relative="1" as="geometry">
                        <mxPoint x="11" y="-6" as="offset"/>
                    </mxGeometry>
                </mxCell>
                <mxCell id="47" style="edgeStyle=none;html=1;entryX=0.5;entryY=0;entryDx=0;entryDy=0;" edge="1" parent="1" source="41" target="46">
                    <mxGeometry relative="1" as="geometry"/>
                </mxCell>
                <mxCell id="41" value="secret-key" style="sketch=0;aspect=fixed;html=1;points=[];align=center;image;fontSize=12;image=img/lib/mscae/Key.svg;" vertex="1" parent="1">
                    <mxGeometry x="579" y="562" width="24.8" height="40" as="geometry"/>
                </mxCell>
                <mxCell id="48" style="edgeStyle=none;html=1;entryX=0;entryY=0.5;entryDx=0;entryDy=0;" edge="1" parent="1" source="45" target="46">
                    <mxGeometry relative="1" as="geometry"/>
                </mxCell>
                <mxCell id="45" value=".envfile" style="verticalLabelPosition=bottom;html=1;verticalAlign=top;align=center;strokeColor=none;fillColor=#00BEF2;shape=mxgraph.azure.cloud_services_configuration_file;pointerEvents=1;" vertex="1" parent="1">
                    <mxGeometry x="460" y="700" width="38" height="40" as="geometry"/>
                </mxCell>
                <mxCell id="49" style="edgeStyle=none;html=1;" edge="1" parent="1" source="46" target="33">
                    <mxGeometry relative="1" as="geometry"/>
                </mxCell>
                <mxCell id="50" value="push" style="edgeLabel;html=1;align=center;verticalAlign=middle;resizable=0;points=[];" vertex="1" connectable="0" parent="49">
                    <mxGeometry x="-0.1771" y="2" relative="1" as="geometry">
                        <mxPoint as="offset"/>
                    </mxGeometry>
                </mxCell>
                <mxCell id="46" value="kubesealコマンドで&#10;encriptionしたyaml" style="shape=image;verticalLabelPosition=bottom;labelBackgroundColor=default;verticalAlign=top;aspect=fixed;imageAspect=0;image=data:image/png,iVBORw0KGgoAAAANSUhEUgAAANoAAADoCAMAAAC+cQpPAAAAflBMVEX///8AAABbW1upqam7u7uvr68eHh7z8/OFhYVHR0d3d3esrKzOzs5+fn4RERFPT0/j4+Pe3t729vZUVFSUlJTU1NTFxcViYmL09PTs7Oyjo6OOjo5oaGi1tbU0NDTp6elAQEApKSkMDAwhISFBQUEXFxc5OTmbm5t5eXlwcHBR64NwAAAHyUlEQVR4nO2dbWOyLBSAcavVvdpWruy9rbVW+/9/8FkvyDmAgSly6OH6Np3CpQiYcGDszHj0sH5qlG2y686Yc7J14oe5a7ODJ7E/Rm7Nlv7MkmTv0qzr08yp29ivmUu3N99qzuqSgW+xxJnbo2+vI49O1DxW/AAnbhPfVmd6DtQefEtdaN+vmgM3MmrJyq3a7rHnmvaiKTes5qYWxhR3f1r1JtS8Wr+4TNbr5lnteenOzbPagb07c/N91+T+eVZfQv7VnLkRUHPlRkGN/XPiRkJNcuvXkxANNSduRNTYZ/1uVNQkt3ENCZFRYz91u9FRY+ua3Qip1e1GSS3FbsOKCVFSk+9bRTdaaummRjdaarLboEpCxNTqdKOmxtItytHH7QmRU2PpU01u9NRYZ4fydPO3fIJqbPpaixtFNTZDbl83upFUY52vGu4bTTU2Q9nadW5JiKga+0D5er3Fjaqa5PZ0gxtZNcltl5ZOiK6a5LYt7UZYTRr4UdqNsprktinpRlqNDbFbuYRoq8lupe4bcTXJbV0mIepqFdzIq0mf9X/sE/Ks9mBxwK1uvgdXlD/i2zah5tVwY2U1FhK7/bNMqHm1DkrR7hsodnuzS6h5NYZ/+kh+x4MPE7P2DW4e1H6Tyli5eVBrVVdLJhbpeFBLa1CzGRbkQY291KBmUSR9qH0UZLcU5mR8qLHC0Z72bM2peFFj1SeVWbTbftQ6rwU5Dl+NTX8Kshy+WuUZL5TVWDq6W7U/stv7XNTV/hi02pbzA35DU7Ond79qj1EtJ6oRIKoJohoBopogqhEgqgmiGgGimiCqESCqCaIaAaKaIKoRIKoJohoBopogqhEgqgmiGgGimiCqESCqCSzU0nGLAjj+6DrT/Et/WkqtjcPuEOdzntqqzT1lsQILK7WPqiOpvLAdmtWGBceSp29SoxDt+UbGBrWnguNCIL2qVsfgZ29MrqkFXByPjK+oPXvKU01Mrqh5ylJtpIVqV+LchkFWqLb3lKPa2BeqBV0/Hnm5X7VloVrgFeRxgm1UC4+oFiJRLUSiWohYq/1bdAHSWTZw34LHZHuFW7vKFEp00B+o+/Mi7Tyd8xtsMF95+7vGIFLfGYXNzvjWBTqkLZ0veWcSYJ8SMOU0/7ILNpgnCdur4enrKPLmEu4R88lxjFhlnrkysRpM4urK+05qL2CD+TeAEs8aWkUGvc2hmGv5GlOfxTnXq4H7qkSzcKuWoGhIYJUstOpdpjmV5mro1EAZUwIvOVZDD4cIGoKCW4Fip2RPisWhzvTPS7ka48axGi6SeU2C6hBxM9EDeEKaQq+q5UV2oexyrYYfqo1GAYTbUIO/SJWaqrbSXq1m1FCRHKu6oDi+Krlj7NuglrurMc6cq+E10k5LHqGoQ6BuUcuU3LRpompcGnvNB0/3aije67EmQXUIjP6iC6CNmzahljeAl++efPHbqYjm3IAautRzvJwAzDmo40DbsNSfKuPX4XJt+vL2RtSkTzmoDoELQoqSOwNdNNS0AbVe/r8n+PZuo3cNF8k+jP+NghGJiqANO1x6tX5+hdZox0ak1Yha0aAG9CD9iu0PcN1oGNABqOX36dT75yW4kzSsVjS0BK1PChom9NzBDEE1fvdPd54/v1njavoo9Kg4fontGT4ADNSAavzRPD1sfHO3eTVdkcT1OiiCz+iksGmDankB3oB+wU/zarrggHi5XHCbjn+CTgy4BFAN3Kn87J3Eg5paJFdoN7it594Y+E/RtCE13oJl4g225UVNDj4pvUGD7ti5tw+CsImmDan1xJn41hcvavKa6/gcsHd7/rEHtAXirQ2p5S3bTx7BdOtHDXcRcXGEIpe+PKgxxVsbUsv/o8sftWNl6UUNRYeV9oFGjQ9eA13NPE9ITTxh/F9bvtTQmxveBd/U+HJxXc02rMYTzgvzgaDaiF2HN21YTQlluSGoZlrqiFenWE2OiXjqlxBTM48J/tWqSYt2rQiqmdfz7mvVpC7OM0E1oxn/CURSkyJyJ/TUYOtcxEKnhq/JwKSWDhUylMP61WzWOh1o1dCqjW2TmgZpOHHdahYRUtmlaZPVUOdtSU8NNmrZCLCANWBPp4ZOuaOnBl938HdQ9KDo1ODDdqkkKKnBRg0vWIV/KV/q1MDD1qOnBhu1nnQILJGZTk39LZaSGvwO8S4dspcOUdTe0G5ias/arRdQD2yhURMXhmfSi9ob6+SInw+yVGxUI9sPpmLv+O8U/J/TTDo85Z8lB5cN03ME6IM4vYYUr9QQh8QESVQLkagWIlEtRKJaiBSrBT+nZlKoJg/CDY5DoVqA0+gxo0K1ccERwVA86/CO54qGXo9cm+F7x/Oyw27Zrs6mz0deBknnulrARdIUuSLcBuA8pvtqlJjBxk/WqrGziBLD8AjGQMiHO5giMqXz6ivcNch6bx2R6cgsW7X9s8LzjdaaPK0yOHz4fx79jAhRTRDVCBDVBFGNAFFNENUIENUEUY0AUU0Q1QgQ1QRRjQAV1XrmA7wxr6a2aTzeuzXSqNjSauEQ1ULEQm1iPgtJNJFYZA7ms5DEYl5SqOND9ma1UJcjGJrVWJBrSCSfFmYsM5+HIDbz5NQ4eSFwsDITk8DDQY4vUYw8s4c6StTMKzyaT0eIkq8nq8PGd46tWB/ME78v/Afvsb6NWuPBtwAAAABJRU5ErkJggg==;" vertex="1" parent="1">
                    <mxGeometry x="570.5400000000001" y="700" width="39.46" height="42" as="geometry"/>
                </mxCell>
            </root>
        </mxGraphModel>
    </diagram>
</mxfile>